<?xml version="1.0" encoding="utf-8" standalone="no"?>
<!DOCTYPE svg PUBLIC "-//W3C//DTD SVG 1.1//EN"
  "http://www.w3.org/Graphics/SVG/1.1/DTD/svg11.dtd">
<!-- Created with matplotlib (https://matplotlib.org/) -->
<svg height="1080pt" version="1.1" viewBox="0 0 1080 1080" width="1080pt" xmlns="http://www.w3.org/2000/svg" xmlns:xlink="http://www.w3.org/1999/xlink">
 <defs>
  <style type="text/css">
*{stroke-linecap:butt;stroke-linejoin:round;}
  </style>
 </defs>
 <g id="figure_1">
  <g id="patch_1">
   <path d="M 0 1080 
L 1080 1080 
L 1080 0 
L 0 0 
z
" style="fill:#ffffff;"/>
  </g>
  <g id="axes_1">
   <g id="patch_2">
    <path d="M 40.3 340.660348 
L 549.35 340.660348 
L 549.35 27.159375 
L 40.3 27.159375 
z
" style="fill:#ffffff;"/>
   </g>
   <g id="patch_3">
    <path clip-path="url(#p890c025abc)" d="M 65.7525 340.660348 
L 116.6575 340.660348 
L 116.6575 209.758392 
L 65.7525 209.758392 
z
" style="fill:#1a1a1a;"/>
   </g>
   <g id="patch_4">
    <path clip-path="url(#p890c025abc)" d="M 167.5625 340.660348 
L 218.4675 340.660348 
L 218.4675 215.411441 
L 167.5625 215.411441 
z
" style="fill:#1a1a1a;"/>
   </g>
   <g id="patch_5">
    <path clip-path="url(#p890c025abc)" d="M 269.3725 340.660348 
L 320.2775 340.660348 
L 320.2775 227.630847 
L 269.3725 227.630847 
z
" style="fill:#1a1a1a;"/>
   </g>
   <g id="patch_6">
    <path clip-path="url(#p890c025abc)" d="M 371.1825 340.660348 
L 422.0875 340.660348 
L 422.0875 251.250832 
L 371.1825 251.250832 
z
" style="fill:#1a1a1a;"/>
   </g>
   <g id="patch_7">
    <path clip-path="url(#p890c025abc)" d="M 472.9925 340.660348 
L 523.8975 340.660348 
L 523.8975 253.959257 
L 472.9925 253.959257 
z
" style="fill:#1a1a1a;"/>
   </g>
   <g id="patch_8">
    <path clip-path="url(#p890c025abc)" d="M 574.8025 340.660348 
L 625.7075 340.660348 
L 625.7075 255.313469 
L 574.8025 255.313469 
z
" style="fill:#1a1a1a;"/>
   </g>
   <g id="patch_9">
    <path clip-path="url(#p890c025abc)" d="M 676.6125 340.660348 
L 727.5175 340.660348 
L 727.5175 255.329216 
L 676.6125 255.329216 
z
" style="fill:#1a1a1a;"/>
   </g>
   <g id="patch_10">
    <path clip-path="url(#p890c025abc)" d="M 778.4225 340.660348 
L 829.3275 340.660348 
L 829.3275 269.879126 
L 778.4225 269.879126 
z
" style="fill:#1a1a1a;"/>
   </g>
   <g id="patch_11">
    <path clip-path="url(#p890c025abc)" d="M 880.2325 340.660348 
L 931.1375 340.660348 
L 931.1375 289.090047 
L 880.2325 289.090047 
z
" style="fill:#1a1a1a;"/>
   </g>
   <g id="patch_12">
    <path clip-path="url(#p890c025abc)" d="M 982.0425 340.660348 
L 1032.9475 340.660348 
L 1032.9475 304.175344 
L 982.0425 304.175344 
z
" style="fill:#1a1a1a;"/>
   </g>
   <g id="patch_13">
    <path clip-path="url(#p890c025abc)" d="M 65.7525 340.660348 
L 116.6575 340.660348 
L 116.6575 196.783147 
L 65.7525 196.783147 
z
" style="fill:#4c72b0;"/>
   </g>
   <g id="patch_14">
    <path clip-path="url(#p890c025abc)" d="M 167.5625 340.660348 
L 218.4675 340.660348 
L 218.4675 210.325271 
L 167.5625 210.325271 
z
" style="fill:#4c72b0;"/>
   </g>
   <g id="patch_15">
    <path clip-path="url(#p890c025abc)" d="M 269.3725 340.660348 
L 320.2775 340.660348 
L 320.2775 226.701794 
L 269.3725 226.701794 
z
" style="fill:#4c72b0;"/>
   </g>
   <g id="patch_16">
    <path clip-path="url(#p890c025abc)" d="M 371.1825 340.660348 
L 422.0875 340.660348 
L 422.0875 267.359661 
L 371.1825 267.359661 
z
" style="fill:#4c72b0;"/>
   </g>
   <g id="patch_17">
    <path clip-path="url(#p890c025abc)" d="M 472.9925 340.660348 
L 523.8975 340.660348 
L 523.8975 272.556058 
L 472.9925 272.556058 
z
" style="fill:#4c72b0;"/>
   </g>
   <g id="patch_18">
    <path clip-path="url(#p890c025abc)" d="M 574.8025 340.660348 
L 625.7075 340.660348 
L 625.7075 287.263435 
L 574.8025 287.263435 
z
" style="fill:#4c72b0;"/>
   </g>
   <g id="patch_19">
    <path clip-path="url(#p890c025abc)" d="M 676.6125 340.660348 
L 727.5175 340.660348 
L 727.5175 294.113231 
L 676.6125 294.113231 
z
" style="fill:#4c72b0;"/>
   </g>
   <g id="patch_20">
    <path clip-path="url(#p890c025abc)" d="M 778.4225 340.660348 
L 829.3275 340.660348 
L 829.3275 297.923922 
L 778.4225 297.923922 
z
" style="fill:#4c72b0;"/>
   </g>
   <g id="patch_21">
    <path clip-path="url(#p890c025abc)" d="M 880.2325 340.660348 
L 931.1375 340.660348 
L 931.1375 301.907826 
L 880.2325 301.907826 
z
" style="fill:#4c72b0;"/>
   </g>
   <g id="patch_22">
    <path clip-path="url(#p890c025abc)" d="M 982.0425 340.660348 
L 1032.9475 340.660348 
L 1032.9475 306.553089 
L 982.0425 306.553089 
z
" style="fill:#4c72b0;"/>
   </g>
   <g id="patch_23">
    <path clip-path="url(#p890c025abc)" d="M 1083.8525 340.660348 
L 1134.7575 340.660348 
L 1134.7575 309.481968 
L 1083.8525 309.481968 
z
" style="fill:#4c72b0;"/>
   </g>
   <g id="patch_24">
    <path clip-path="url(#p890c025abc)" d="M 1185.6625 340.660348 
L 1236.5675 340.660348 
L 1236.5675 314.064245 
L 1185.6625 314.064245 
z
" style="fill:#4c72b0;"/>
   </g>
   <g id="patch_25">
    <path clip-path="url(#p890c025abc)" d="M 1287.4725 340.660348 
L 1338.3775 340.660348 
L 1338.3775 316.961629 
L 1287.4725 316.961629 
z
" style="fill:#4c72b0;"/>
   </g>
   <g id="patch_26">
    <path clip-path="url(#p890c025abc)" d="M 1389.2825 340.660348 
L 1440.1875 340.660348 
L 1440.1875 321.62264 
L 1389.2825 321.62264 
z
" style="fill:#4c72b0;"/>
   </g>
   <g id="patch_27">
    <path clip-path="url(#p890c025abc)" d="M 1491.0925 340.660348 
L 1541.9975 340.660348 
L 1541.9975 325.449077 
L 1491.0925 325.449077 
z
" style="fill:#4c72b0;"/>
   </g>
   <g id="patch_28">
    <path clip-path="url(#p890c025abc)" d="M 65.7525 340.660348 
L 116.6575 340.660348 
L 116.6575 196.783147 
L 65.7525 196.783147 
z
" style="fill:#ccb974;"/>
   </g>
   <g id="patch_29">
    <path clip-path="url(#p890c025abc)" d="M 167.5625 340.660348 
L 218.4675 340.660348 
L 218.4675 226.701794 
L 167.5625 226.701794 
z
" style="fill:#ccb974;"/>
   </g>
   <g id="patch_30">
    <path clip-path="url(#p890c025abc)" d="M 269.3725 340.660348 
L 320.2775 340.660348 
L 320.2775 267.359661 
L 269.3725 267.359661 
z
" style="fill:#ccb974;"/>
   </g>
   <g id="patch_31">
    <path clip-path="url(#p890c025abc)" d="M 371.1825 340.660348 
L 422.0875 340.660348 
L 422.0875 270.398766 
L 371.1825 270.398766 
z
" style="fill:#ccb974;"/>
   </g>
   <g id="patch_32">
    <path clip-path="url(#p890c025abc)" d="M 472.9925 340.660348 
L 523.8975 340.660348 
L 523.8975 272.556058 
L 472.9925 272.556058 
z
" style="fill:#ccb974;"/>
   </g>
   <g id="patch_33">
    <path clip-path="url(#p890c025abc)" d="M 574.8025 340.660348 
L 625.7075 340.660348 
L 625.7075 284.759717 
L 574.8025 284.759717 
z
" style="fill:#ccb974;"/>
   </g>
   <g id="patch_34">
    <path clip-path="url(#p890c025abc)" d="M 676.6125 340.660348 
L 727.5175 340.660348 
L 727.5175 287.263435 
L 676.6125 287.263435 
z
" style="fill:#ccb974;"/>
   </g>
   <g id="patch_35">
    <path clip-path="url(#p890c025abc)" d="M 778.4225 340.660348 
L 829.3275 340.660348 
L 829.3275 288.727874 
L 778.4225 288.727874 
z
" style="fill:#ccb974;"/>
   </g>
   <g id="patch_36">
    <path clip-path="url(#p890c025abc)" d="M 880.2325 340.660348 
L 931.1375 340.660348 
L 931.1375 297.923922 
L 880.2325 297.923922 
z
" style="fill:#ccb974;"/>
   </g>
   <g id="patch_37">
    <path clip-path="url(#p890c025abc)" d="M 982.0425 340.660348 
L 1032.9475 340.660348 
L 1032.9475 301.907826 
L 982.0425 301.907826 
z
" style="fill:#ccb974;"/>
   </g>
   <g id="patch_38">
    <path clip-path="url(#p890c025abc)" d="M 1083.8525 340.660348 
L 1134.7575 340.660348 
L 1134.7575 306.553089 
L 1083.8525 306.553089 
z
" style="fill:#ccb974;"/>
   </g>
   <g id="patch_39">
    <path clip-path="url(#p890c025abc)" d="M 1185.6625 340.660348 
L 1236.5675 340.660348 
L 1236.5675 307.356169 
L 1185.6625 307.356169 
z
" style="fill:#ccb974;"/>
   </g>
   <g id="patch_40">
    <path clip-path="url(#p890c025abc)" d="M 1287.4725 340.660348 
L 1338.3775 340.660348 
L 1338.3775 309.481968 
L 1287.4725 309.481968 
z
" style="fill:#ccb974;"/>
   </g>
   <g id="patch_41">
    <path clip-path="url(#p890c025abc)" d="M 1389.2825 340.660348 
L 1440.1875 340.660348 
L 1440.1875 313.891031 
L 1389.2825 313.891031 
z
" style="fill:#ccb974;"/>
   </g>
   <g id="patch_42">
    <path clip-path="url(#p890c025abc)" d="M 1491.0925 340.660348 
L 1541.9975 340.660348 
L 1541.9975 321.62264 
L 1491.0925 321.62264 
z
" style="fill:#ccb974;"/>
   </g>
   <g id="patch_43">
    <path clip-path="url(#p890c025abc)" d="M 65.7525 340.660348 
L 116.6575 340.660348 
L 116.6575 196.783147 
L 65.7525 196.783147 
z
" style="fill:#c44e52;"/>
   </g>
   <g id="patch_44">
    <path clip-path="url(#p890c025abc)" d="M 167.5625 340.660348 
L 218.4675 340.660348 
L 218.4675 226.701794 
L 167.5625 226.701794 
z
" style="fill:#c44e52;"/>
   </g>
   <g id="patch_45">
    <path clip-path="url(#p890c025abc)" d="M 269.3725 340.660348 
L 320.2775 340.660348 
L 320.2775 267.359661 
L 269.3725 267.359661 
z
" style="fill:#c44e52;"/>
   </g>
   <g id="patch_46">
    <path clip-path="url(#p890c025abc)" d="M 371.1825 340.660348 
L 422.0875 340.660348 
L 422.0875 270.398766 
L 371.1825 270.398766 
z
" style="fill:#c44e52;"/>
   </g>
   <g id="patch_47">
    <path clip-path="url(#p890c025abc)" d="M 472.9925 340.660348 
L 523.8975 340.660348 
L 523.8975 272.556058 
L 472.9925 272.556058 
z
" style="fill:#c44e52;"/>
   </g>
   <g id="patch_48">
    <path clip-path="url(#p890c025abc)" d="M 574.8025 340.660348 
L 625.7075 340.660348 
L 625.7075 284.759717 
L 574.8025 284.759717 
z
" style="fill:#c44e52;"/>
   </g>
   <g id="patch_49">
    <path clip-path="url(#p890c025abc)" d="M 676.6125 340.660348 
L 727.5175 340.660348 
L 727.5175 287.263435 
L 676.6125 287.263435 
z
" style="fill:#c44e52;"/>
   </g>
   <g id="patch_50">
    <path clip-path="url(#p890c025abc)" d="M 778.4225 340.660348 
L 829.3275 340.660348 
L 829.3275 288.727874 
L 778.4225 288.727874 
z
" style="fill:#c44e52;"/>
   </g>
   <g id="patch_51">
    <path clip-path="url(#p890c025abc)" d="M 880.2325 340.660348 
L 931.1375 340.660348 
L 931.1375 297.923922 
L 880.2325 297.923922 
z
" style="fill:#c44e52;"/>
   </g>
   <g id="patch_52">
    <path clip-path="url(#p890c025abc)" d="M 982.0425 340.660348 
L 1032.9475 340.660348 
L 1032.9475 301.907826 
L 982.0425 301.907826 
z
" style="fill:#c44e52;"/>
   </g>
   <g id="patch_53">
    <path clip-path="url(#p890c025abc)" d="M 1083.8525 340.660348 
L 1134.7575 340.660348 
L 1134.7575 306.553089 
L 1083.8525 306.553089 
z
" style="fill:#c44e52;"/>
   </g>
   <g id="patch_54">
    <path clip-path="url(#p890c025abc)" d="M 1185.6625 340.660348 
L 1236.5675 340.660348 
L 1236.5675 307.356169 
L 1185.6625 307.356169 
z
" style="fill:#c44e52;"/>
   </g>
   <g id="patch_55">
    <path clip-path="url(#p890c025abc)" d="M 1287.4725 340.660348 
L 1338.3775 340.660348 
L 1338.3775 309.481968 
L 1287.4725 309.481968 
z
" style="fill:#c44e52;"/>
   </g>
   <g id="patch_56">
    <path clip-path="url(#p890c025abc)" d="M 1389.2825 340.660348 
L 1440.1875 340.660348 
L 1440.1875 313.891031 
L 1389.2825 313.891031 
z
" style="fill:#c44e52;"/>
   </g>
   <g id="patch_57">
    <path clip-path="url(#p890c025abc)" d="M 1491.0925 340.660348 
L 1541.9975 340.660348 
L 1541.9975 321.62264 
L 1491.0925 321.62264 
z
" style="fill:#c44e52;"/>
   </g>
   <g id="patch_58">
    <path clip-path="url(#p890c025abc)" d="M 65.7525 340.660348 
L 116.6575 340.660348 
L 116.6575 42.087993 
L 65.7525 42.087993 
z
" style="fill:#64b5cd;"/>
   </g>
   <g id="patch_59">
    <path clip-path="url(#p890c025abc)" d="M 167.5625 340.660348 
L 218.4675 340.660348 
L 218.4675 151.747709 
L 167.5625 151.747709 
z
" style="fill:#64b5cd;"/>
   </g>
   <g id="patch_60">
    <path clip-path="url(#p890c025abc)" d="M 269.3725 340.660348 
L 320.2775 340.660348 
L 320.2775 198.405052 
L 269.3725 198.405052 
z
" style="fill:#64b5cd;"/>
   </g>
   <g id="patch_61">
    <path clip-path="url(#p890c025abc)" d="M 371.1825 340.660348 
L 422.0875 340.660348 
L 422.0875 215.301215 
L 371.1825 215.301215 
z
" style="fill:#64b5cd;"/>
   </g>
   <g id="patch_62">
    <path clip-path="url(#p890c025abc)" d="M 472.9925 340.660348 
L 523.8975 340.660348 
L 523.8975 220.954264 
L 472.9925 220.954264 
z
" style="fill:#64b5cd;"/>
   </g>
   <g id="matplotlib.axis_1">
    <g id="xtick_1">
     <g id="line2d_1">
      <defs>
       <path d="M 0 0 
L 0 3.5 
" id="mcd8b904ef3" style="stroke:#58544f;stroke-width:0.8;"/>
      </defs>
      <g>
       <use style="fill:#58544f;stroke:#58544f;stroke-width:0.8;" x="91.205" xlink:href="#mcd8b904ef3" y="340.660348"/>
      </g>
     </g>
     <g id="text_1">
      <!-- Shop -->
      <defs>
       <path d="M 44.390625 18.3125 
Q 44.390625 23 41.09375 25.53125 
Q 37.796875 28.078125 29.203125 30.65625 
Q 20.609375 33.25 15.53125 36.421875 
Q 5.8125 42.53125 5.8125 52.34375 
Q 5.8125 60.9375 12.8125 66.5 
Q 19.828125 72.078125 31 72.078125 
Q 38.421875 72.078125 44.234375 69.34375 
Q 50.046875 66.609375 53.359375 61.546875 
Q 56.6875 56.5 56.6875 50.34375 
L 44.390625 50.34375 
Q 44.390625 55.90625 40.890625 59.046875 
Q 37.40625 62.203125 30.90625 62.203125 
Q 24.859375 62.203125 21.515625 59.609375 
Q 18.171875 57.03125 18.171875 52.390625 
Q 18.171875 48.484375 21.78125 45.875 
Q 25.390625 43.265625 33.6875 40.796875 
Q 42 38.328125 47.015625 35.171875 
Q 52.046875 32.03125 54.390625 27.953125 
Q 56.734375 23.875 56.734375 18.40625 
Q 56.734375 9.515625 49.921875 4.265625 
Q 43.109375 -0.984375 31.453125 -0.984375 
Q 23.734375 -0.984375 17.265625 1.875 
Q 10.796875 4.734375 7.203125 9.765625 
Q 3.609375 14.796875 3.609375 21.484375 
L 15.96875 21.484375 
Q 15.96875 15.4375 19.96875 12.109375 
Q 23.96875 8.796875 31.453125 8.796875 
Q 37.890625 8.796875 41.140625 11.40625 
Q 44.390625 14.015625 44.390625 18.3125 
z
" id="Roboto-Medium-83"/>
       <path d="M 17.78125 47.078125 
Q 23.578125 53.8125 32.46875 53.8125 
Q 49.359375 53.8125 49.609375 34.515625 
L 49.609375 0 
L 37.75 0 
L 37.75 34.078125 
Q 37.75 39.546875 35.375 41.8125 
Q 33.015625 44.09375 28.421875 44.09375 
Q 21.296875 44.09375 17.78125 37.75 
L 17.78125 0 
L 5.90625 0 
L 5.90625 75 
L 17.78125 75 
z
" id="Roboto-Medium-104"/>
       <path d="M 3.859375 26.90625 
Q 3.859375 34.671875 6.9375 40.890625 
Q 10.015625 47.125 15.578125 50.46875 
Q 21.140625 53.8125 28.375 53.8125 
Q 39.0625 53.8125 45.71875 46.921875 
Q 52.390625 40.046875 52.9375 28.65625 
L 52.984375 25.875 
Q 52.984375 18.0625 49.96875 11.90625 
Q 46.96875 5.765625 41.375 2.390625 
Q 35.796875 -0.984375 28.46875 -0.984375 
Q 17.28125 -0.984375 10.5625 6.46875 
Q 3.859375 13.921875 3.859375 26.3125 
z
M 15.71875 25.875 
Q 15.71875 17.71875 19.09375 13.109375 
Q 22.46875 8.5 28.46875 8.5 
Q 34.46875 8.5 37.8125 13.1875 
Q 41.15625 17.875 41.15625 26.90625 
Q 41.15625 34.90625 37.71875 39.59375 
Q 34.28125 44.28125 28.375 44.28125 
Q 22.5625 44.28125 19.140625 39.671875 
Q 15.71875 35.0625 15.71875 25.875 
z
" id="Roboto-Medium-111"/>
       <path d="M 52.34375 25.875 
Q 52.34375 13.625 46.78125 6.3125 
Q 41.21875 -0.984375 31.84375 -0.984375 
Q 23.140625 -0.984375 17.921875 4.734375 
L 17.921875 -20.3125 
L 6.0625 -20.3125 
L 6.0625 52.828125 
L 17 52.828125 
L 17.484375 47.46875 
Q 22.703125 53.8125 31.6875 53.8125 
Q 41.359375 53.8125 46.84375 46.609375 
Q 52.34375 39.40625 52.34375 26.609375 
z
M 40.53125 26.90625 
Q 40.53125 34.8125 37.375 39.453125 
Q 34.234375 44.09375 28.375 44.09375 
Q 21.09375 44.09375 17.921875 38.09375 
L 17.921875 14.65625 
Q 21.140625 8.5 28.46875 8.5 
Q 34.125 8.5 37.328125 13.0625 
Q 40.53125 17.625 40.53125 26.90625 
z
" id="Roboto-Medium-112"/>
      </defs>
      <g style="fill:#58544f;" transform="translate(77.095568 364.863372)rotate(-45)scale(0.08 -0.08)">
       <use xlink:href="#Roboto-Medium-83"/>
       <use x="60.351562" xlink:href="#Roboto-Medium-104"/>
       <use x="115.869141" xlink:href="#Roboto-Medium-111"/>
       <use x="172.802734" xlink:href="#Roboto-Medium-112"/>
      </g>
     </g>
    </g>
    <g id="xtick_2">
     <g id="line2d_2">
      <g>
       <use style="fill:#58544f;stroke:#58544f;stroke-width:0.8;" x="193.015" xlink:href="#mcd8b904ef3" y="340.660348"/>
      </g>
     </g>
     <g id="text_2">
      <!-- Office -->
      <defs>
       <path d="M 63.96875 33.6875 
Q 63.96875 23.25 60.34375 15.359375 
Q 56.734375 7.46875 50.015625 3.234375 
Q 43.3125 -0.984375 34.578125 -0.984375 
Q 25.921875 -0.984375 19.15625 3.234375 
Q 12.40625 7.46875 8.71875 15.28125 
Q 5.03125 23.09375 4.984375 33.296875 
L 4.984375 37.3125 
Q 4.984375 47.703125 8.671875 55.65625 
Q 12.359375 63.625 19.0625 67.84375 
Q 25.78125 72.078125 34.46875 72.078125 
Q 43.171875 72.078125 49.875 67.890625 
Q 56.59375 63.71875 60.25 55.875 
Q 63.921875 48.046875 63.96875 37.640625 
z
M 51.609375 37.40625 
Q 51.609375 49.21875 47.140625 55.515625 
Q 42.671875 61.8125 34.46875 61.8125 
Q 26.46875 61.8125 21.953125 55.53125 
Q 17.4375 49.265625 17.328125 37.796875 
L 17.328125 33.6875 
Q 17.328125 21.96875 21.890625 15.578125 
Q 26.46875 9.1875 34.578125 9.1875 
Q 42.78125 9.1875 47.1875 15.4375 
Q 51.609375 21.6875 51.609375 33.6875 
z
" id="Roboto-Medium-79"/>
       <path d="M 10.25 0 
L 10.25 44.046875 
L 2.203125 44.046875 
L 2.203125 52.828125 
L 10.25 52.828125 
L 10.25 57.671875 
Q 10.25 66.453125 15.125 71.234375 
Q 20.015625 76.03125 28.8125 76.03125 
Q 31.9375 76.03125 35.453125 75.140625 
L 35.15625 65.875 
Q 33.203125 66.265625 30.609375 66.265625 
Q 22.125 66.265625 22.125 57.515625 
L 22.125 52.828125 
L 32.859375 52.828125 
L 32.859375 44.046875 
L 22.125 44.046875 
L 22.125 0 
z
" id="Roboto-Medium-102"/>
       <path d="M 18.703125 0 
L 6.84375 0 
L 6.84375 52.828125 
L 18.703125 52.828125 
z
M 6.109375 66.546875 
Q 6.109375 69.28125 7.84375 71.09375 
Q 9.578125 72.90625 12.796875 72.90625 
Q 16.015625 72.90625 17.765625 71.09375 
Q 19.53125 69.28125 19.53125 66.546875 
Q 19.53125 63.875 17.765625 62.078125 
Q 16.015625 60.296875 12.796875 60.296875 
Q 9.578125 60.296875 7.84375 62.078125 
Q 6.109375 63.875 6.109375 66.546875 
z
" id="Roboto-Medium-105"/>
       <path d="M 27.78125 8.5 
Q 32.234375 8.5 35.15625 11.078125 
Q 38.09375 13.671875 38.28125 17.484375 
L 49.46875 17.484375 
Q 49.265625 12.546875 46.375 8.265625 
Q 43.5 4 38.5625 1.5 
Q 33.640625 -0.984375 27.9375 -0.984375 
Q 16.84375 -0.984375 10.34375 6.1875 
Q 3.859375 13.375 3.859375 26.03125 
L 3.859375 27.25 
Q 3.859375 39.3125 10.296875 46.5625 
Q 16.75 53.8125 27.875 53.8125 
Q 37.3125 53.8125 43.234375 48.3125 
Q 49.171875 42.828125 49.46875 33.890625 
L 38.28125 33.890625 
Q 38.09375 38.421875 35.1875 41.34375 
Q 32.28125 44.28125 27.78125 44.28125 
Q 22.015625 44.28125 18.890625 40.109375 
Q 15.765625 35.9375 15.71875 27.4375 
L 15.71875 25.53125 
Q 15.71875 16.9375 18.8125 12.71875 
Q 21.921875 8.5 27.78125 8.5 
z
" id="Roboto-Medium-99"/>
       <path d="M 29.34375 -0.984375 
Q 18.0625 -0.984375 11.046875 6.125 
Q 4.046875 13.234375 4.046875 25.046875 
L 4.046875 26.515625 
Q 4.046875 34.421875 7.09375 40.640625 
Q 10.15625 46.875 15.671875 50.34375 
Q 21.1875 53.8125 27.984375 53.8125 
Q 38.765625 53.8125 44.640625 46.921875 
Q 50.53125 40.046875 50.53125 27.4375 
L 50.53125 22.65625 
L 16.015625 22.65625 
Q 16.546875 16.109375 20.375 12.296875 
Q 24.21875 8.5 30.03125 8.5 
Q 38.1875 8.5 43.3125 15.09375 
L 49.703125 8.984375 
Q 46.53125 4.25 41.234375 1.625 
Q 35.9375 -0.984375 29.34375 -0.984375 
z
M 27.9375 44.28125 
Q 23.046875 44.28125 20.046875 40.859375 
Q 17.046875 37.453125 16.21875 31.34375 
L 38.8125 31.34375 
L 38.8125 32.234375 
Q 38.421875 38.1875 35.640625 41.234375 
Q 32.859375 44.28125 27.9375 44.28125 
z
" id="Roboto-Medium-101"/>
      </defs>
      <g style="fill:#58544f;" transform="translate(176.508476 367.260464)rotate(-45)scale(0.08 -0.08)">
       <use xlink:href="#Roboto-Medium-79"/>
       <use x="69.042969" xlink:href="#Roboto-Medium-102"/>
       <use x="104.492188" xlink:href="#Roboto-Medium-102"/>
       <use x="139.941406" xlink:href="#Roboto-Medium-105"/>
       <use x="165.478516" xlink:href="#Roboto-Medium-99"/>
       <use x="217.822266" xlink:href="#Roboto-Medium-101"/>
      </g>
     </g>
    </g>
    <g id="xtick_3">
     <g id="line2d_3">
      <g>
       <use style="fill:#58544f;stroke:#58544f;stroke-width:0.8;" x="294.825" xlink:href="#mcd8b904ef3" y="340.660348"/>
      </g>
     </g>
     <g id="text_3">
      <!-- Factory -->
      <defs>
       <path d="M 48.1875 30.125 
L 19.578125 30.125 
L 19.578125 0 
L 7.234375 0 
L 7.234375 71.09375 
L 52.390625 71.09375 
L 52.390625 61.140625 
L 19.578125 61.140625 
L 19.578125 39.984375 
L 48.1875 39.984375 
z
" id="Roboto-Medium-70"/>
       <path d="M 37.640625 0 
Q 36.859375 1.515625 36.28125 4.9375 
Q 30.609375 -0.984375 22.40625 -0.984375 
Q 14.453125 -0.984375 9.421875 3.5625 
Q 4.390625 8.109375 4.390625 14.796875 
Q 4.390625 23.25 10.65625 27.765625 
Q 16.9375 32.28125 28.609375 32.28125 
L 35.890625 32.28125 
L 35.890625 35.75 
Q 35.890625 39.84375 33.59375 42.3125 
Q 31.296875 44.78125 26.609375 44.78125 
Q 22.5625 44.78125 19.96875 42.75 
Q 17.390625 40.71875 17.390625 37.59375 
L 5.515625 37.59375 
Q 5.515625 41.9375 8.390625 45.71875 
Q 11.28125 49.515625 16.234375 51.65625 
Q 21.1875 53.8125 27.296875 53.8125 
Q 36.578125 53.8125 42.09375 49.140625 
Q 47.609375 44.484375 47.75 36.03125 
L 47.75 12.203125 
Q 47.75 5.078125 49.75 0.828125 
L 49.75 0 
z
M 24.609375 8.546875 
Q 28.125 8.546875 31.21875 10.25 
Q 34.328125 11.96875 35.890625 14.84375 
L 35.890625 24.8125 
L 29.5 24.8125 
Q 22.90625 24.8125 19.578125 22.515625 
Q 16.265625 20.21875 16.265625 16.015625 
Q 16.265625 12.59375 18.53125 10.5625 
Q 20.796875 8.546875 24.609375 8.546875 
z
" id="Roboto-Medium-97"/>
       <path d="M 20.953125 65.671875 
L 20.953125 52.828125 
L 30.28125 52.828125 
L 30.28125 44.046875 
L 20.953125 44.046875 
L 20.953125 14.546875 
Q 20.953125 11.53125 22.140625 10.1875 
Q 23.34375 8.84375 26.421875 8.84375 
Q 28.46875 8.84375 30.5625 9.328125 
L 30.5625 0.140625 
Q 26.515625 -0.984375 22.75 -0.984375 
Q 9.078125 -0.984375 9.078125 14.109375 
L 9.078125 44.046875 
L 0.390625 44.046875 
L 0.390625 52.828125 
L 9.078125 52.828125 
L 9.078125 65.671875 
z
" id="Roboto-Medium-116"/>
       <path d="M 33.734375 42 
Q 31.390625 42.390625 28.90625 42.390625 
Q 20.75 42.390625 17.921875 36.140625 
L 17.921875 0 
L 6.0625 0 
L 6.0625 52.828125 
L 17.390625 52.828125 
L 17.671875 46.921875 
Q 21.96875 53.8125 29.59375 53.8125 
Q 32.125 53.8125 33.796875 53.125 
z
" id="Roboto-Medium-114"/>
       <path d="M 24.5625 17 
L 35.296875 52.828125 
L 47.953125 52.828125 
L 26.953125 -8.015625 
Q 22.125 -21.34375 10.546875 -21.34375 
Q 7.953125 -21.34375 4.828125 -20.453125 
L 4.828125 -11.28125 
L 7.078125 -11.421875 
Q 11.578125 -11.421875 13.84375 -9.78125 
Q 16.109375 -8.15625 17.4375 -4.296875 
L 19.140625 0.25 
L 0.59375 52.828125 
L 13.375 52.828125 
z
" id="Roboto-Medium-121"/>
      </defs>
      <g style="fill:#58544f;" transform="translate(274.643289 370.818979)rotate(-45)scale(0.08 -0.08)">
       <use xlink:href="#Roboto-Medium-70"/>
       <use x="54.931641" xlink:href="#Roboto-Medium-97"/>
       <use x="109.033203" xlink:href="#Roboto-Medium-99"/>
       <use x="161.376953" xlink:href="#Roboto-Medium-116"/>
       <use x="194.628906" xlink:href="#Roboto-Medium-111"/>
       <use x="251.5625" xlink:href="#Roboto-Medium-114"/>
       <use x="286.71875" xlink:href="#Roboto-Medium-121"/>
      </g>
     </g>
    </g>
    <g id="xtick_4">
     <g id="line2d_4">
      <g>
       <use style="fill:#58544f;stroke:#58544f;stroke-width:0.8;" x="396.635" xlink:href="#mcd8b904ef3" y="340.660348"/>
      </g>
     </g>
     <g id="text_4">
      <!-- Warehouse -->
      <defs>
       <path d="M 62.984375 17.578125 
L 73.921875 71.09375 
L 86.1875 71.09375 
L 69.78125 0 
L 57.953125 0 
L 44.4375 51.90625 
L 30.609375 0 
L 18.75 0 
L 2.34375 71.09375 
L 14.59375 71.09375 
L 25.640625 17.671875 
L 39.203125 71.09375 
L 49.5625 71.09375 
z
" id="Roboto-Medium-87"/>
       <path d="M 38.09375 5.171875 
Q 32.859375 -0.984375 23.25 -0.984375 
Q 14.65625 -0.984375 10.234375 4.046875 
Q 5.8125 9.078125 5.8125 18.609375 
L 5.8125 52.828125 
L 17.671875 52.828125 
L 17.671875 18.75 
Q 17.671875 8.6875 26.03125 8.6875 
Q 34.671875 8.6875 37.703125 14.890625 
L 37.703125 52.828125 
L 49.5625 52.828125 
L 49.5625 0 
L 38.375 0 
z
" id="Roboto-Medium-117"/>
       <path d="M 35.6875 14.359375 
Q 35.6875 17.53125 33.078125 19.1875 
Q 30.46875 20.84375 24.40625 22.109375 
Q 18.359375 23.390625 14.3125 25.34375 
Q 5.421875 29.640625 5.421875 37.796875 
Q 5.421875 44.625 11.171875 49.21875 
Q 16.9375 53.8125 25.828125 53.8125 
Q 35.296875 53.8125 41.125 49.125 
Q 46.96875 44.4375 46.96875 36.96875 
L 35.109375 36.96875 
Q 35.109375 40.375 32.5625 42.640625 
Q 30.03125 44.921875 25.828125 44.921875 
Q 21.921875 44.921875 19.453125 43.109375 
Q 17 41.3125 17 38.28125 
Q 17 35.546875 19.28125 34.03125 
Q 21.578125 32.515625 28.5625 30.96875 
Q 35.546875 29.4375 39.515625 27.3125 
Q 43.5 25.203125 45.421875 22.21875 
Q 47.359375 19.234375 47.359375 14.984375 
Q 47.359375 7.859375 41.453125 3.4375 
Q 35.546875 -0.984375 25.984375 -0.984375 
Q 19.484375 -0.984375 14.40625 1.359375 
Q 9.328125 3.71875 6.484375 7.8125 
Q 3.65625 11.921875 3.65625 16.65625 
L 15.1875 16.65625 
Q 15.4375 12.453125 18.359375 10.171875 
Q 21.296875 7.90625 26.125 7.90625 
Q 30.8125 7.90625 33.25 9.6875 
Q 35.6875 11.46875 35.6875 14.359375 
z
" id="Roboto-Medium-115"/>
      </defs>
      <g style="fill:#58544f;" transform="translate(366.964799 380.42414)rotate(-45)scale(0.08 -0.08)">
       <use xlink:href="#Roboto-Medium-87"/>
       <use x="87.988281" xlink:href="#Roboto-Medium-97"/>
       <use x="142.089844" xlink:href="#Roboto-Medium-114"/>
       <use x="177.246094" xlink:href="#Roboto-Medium-101"/>
       <use x="230.908203" xlink:href="#Roboto-Medium-104"/>
       <use x="286.425781" xlink:href="#Roboto-Medium-111"/>
       <use x="343.359375" xlink:href="#Roboto-Medium-117"/>
       <use x="398.925781" xlink:href="#Roboto-Medium-115"/>
       <use x="450.537109" xlink:href="#Roboto-Medium-101"/>
      </g>
     </g>
    </g>
    <g id="xtick_5">
     <g id="line2d_5">
      <g>
       <use style="fill:#58544f;stroke:#58544f;stroke-width:0.8;" x="498.445" xlink:href="#mcd8b904ef3" y="340.660348"/>
      </g>
     </g>
     <g id="text_5">
      <!-- Other -->
      <g style="fill:#58544f;" transform="translate(483.344735 365.854205)rotate(-45)scale(0.08 -0.08)">
       <use xlink:href="#Roboto-Medium-79"/>
       <use x="69.042969" xlink:href="#Roboto-Medium-116"/>
       <use x="102.294922" xlink:href="#Roboto-Medium-104"/>
       <use x="157.8125" xlink:href="#Roboto-Medium-101"/>
       <use x="211.474609" xlink:href="#Roboto-Medium-114"/>
      </g>
     </g>
    </g>
   </g>
   <g id="matplotlib.axis_2">
    <g id="ytick_1">
     <g id="line2d_6">
      <defs>
       <path d="M 0 0 
L -3.5 0 
" id="ma02c514775" style="stroke:#58544f;stroke-width:0.8;"/>
      </defs>
      <g>
       <use style="fill:#58544f;stroke:#58544f;stroke-width:0.8;" x="40.3" xlink:href="#ma02c514775" y="340.660348"/>
      </g>
     </g>
     <g id="text_6">
      <!-- 0 -->
      <defs>
       <path d="M 51.65625 29.9375 
Q 51.65625 14.59375 45.921875 6.796875 
Q 40.1875 -0.984375 28.46875 -0.984375 
Q 16.9375 -0.984375 11.109375 6.609375 
Q 5.28125 14.203125 5.125 29.109375 
L 5.125 41.40625 
Q 5.125 56.734375 10.859375 64.40625 
Q 16.609375 72.078125 28.375 72.078125 
Q 40.046875 72.078125 45.78125 64.59375 
Q 51.515625 57.125 51.65625 42.234375 
z
M 39.796875 43.21875 
Q 39.796875 53.21875 37.0625 57.875 
Q 34.328125 62.546875 28.375 62.546875 
Q 22.5625 62.546875 19.828125 58.125 
Q 17.09375 53.71875 16.9375 44.34375 
L 16.9375 28.21875 
Q 16.9375 18.265625 19.71875 13.375 
Q 22.515625 8.5 28.46875 8.5 
Q 34.1875 8.5 36.921875 13.015625 
Q 39.65625 17.53125 39.796875 27.15625 
z
" id="Roboto-Medium-48"/>
      </defs>
      <g style="fill:#58544f;" transform="translate(28.7525 343.660348)scale(0.08 -0.08)">
       <use xlink:href="#Roboto-Medium-48"/>
      </g>
     </g>
    </g>
    <g id="ytick_2">
     <g id="line2d_7">
      <g>
       <use style="fill:#58544f;stroke:#58544f;stroke-width:0.8;" x="40.3" xlink:href="#ma02c514775" y="301.293706"/>
      </g>
     </g>
     <g id="text_7">
      <!-- 2500 -->
      <defs>
       <path d="M 53.125 0 
L 5.328125 0 
L 5.328125 8.15625 
L 29 33.984375 
Q 34.125 39.703125 36.296875 43.53125 
Q 38.484375 47.359375 38.484375 51.21875 
Q 38.484375 56.296875 35.625 59.421875 
Q 32.765625 62.546875 27.9375 62.546875 
Q 22.171875 62.546875 19 59.03125 
Q 15.828125 55.515625 15.828125 49.421875 
L 3.953125 49.421875 
Q 3.953125 55.90625 6.90625 61.109375 
Q 9.859375 66.3125 15.34375 69.1875 
Q 20.84375 72.078125 28.03125 72.078125 
Q 38.375 72.078125 44.359375 66.875 
Q 50.34375 61.671875 50.34375 52.484375 
Q 50.34375 47.171875 47.34375 41.328125 
Q 44.34375 35.5 37.5 28.078125 
L 20.125 9.46875 
L 53.125 9.46875 
z
" id="Roboto-Medium-50"/>
       <path d="M 8.5 35.25 
L 12.359375 71.09375 
L 50.53125 71.09375 
L 50.53125 60.84375 
L 22.21875 60.84375 
L 20.265625 43.84375 
Q 25.203125 46.6875 31.390625 46.6875 
Q 41.546875 46.6875 47.1875 40.1875 
Q 52.828125 33.6875 52.828125 22.703125 
Q 52.828125 11.859375 46.578125 5.4375 
Q 40.328125 -0.984375 29.4375 -0.984375 
Q 19.671875 -0.984375 13.25 4.5625 
Q 6.84375 10.109375 6.296875 19.1875 
L 17.78125 19.1875 
Q 18.453125 14.015625 21.484375 11.25 
Q 24.515625 8.5 29.390625 8.5 
Q 34.859375 8.5 37.90625 12.40625 
Q 40.96875 16.3125 40.96875 23.046875 
Q 40.96875 29.546875 37.59375 33.328125 
Q 34.234375 37.109375 28.328125 37.109375 
Q 25.09375 37.109375 22.84375 36.25 
Q 20.609375 35.40625 17.96875 32.90625 
z
" id="Roboto-Medium-53"/>
      </defs>
      <g style="fill:#58544f;" transform="translate(15.11 304.293706)scale(0.08 -0.08)">
       <use xlink:href="#Roboto-Medium-50"/>
       <use x="56.835938" xlink:href="#Roboto-Medium-53"/>
       <use x="113.671875" xlink:href="#Roboto-Medium-48"/>
       <use x="170.507812" xlink:href="#Roboto-Medium-48"/>
      </g>
     </g>
    </g>
    <g id="ytick_3">
     <g id="line2d_8">
      <g>
       <use style="fill:#58544f;stroke:#58544f;stroke-width:0.8;" x="40.3" xlink:href="#ma02c514775" y="261.927065"/>
      </g>
     </g>
     <g id="text_8">
      <!-- 5000 -->
      <g style="fill:#58544f;" transform="translate(15.11 264.927065)scale(0.08 -0.08)">
       <use xlink:href="#Roboto-Medium-53"/>
       <use x="56.835938" xlink:href="#Roboto-Medium-48"/>
       <use x="113.671875" xlink:href="#Roboto-Medium-48"/>
       <use x="170.507812" xlink:href="#Roboto-Medium-48"/>
      </g>
     </g>
    </g>
    <g id="ytick_4">
     <g id="line2d_9">
      <g>
       <use style="fill:#58544f;stroke:#58544f;stroke-width:0.8;" x="40.3" xlink:href="#ma02c514775" y="222.560423"/>
      </g>
     </g>
     <g id="text_9">
      <!-- 7500 -->
      <defs>
       <path d="M 52.640625 64.5 
L 24.21875 0 
L 11.765625 0 
L 40.140625 61.578125 
L 3.375 61.578125 
L 3.375 71.09375 
L 52.640625 71.09375 
z
" id="Roboto-Medium-55"/>
      </defs>
      <g style="fill:#58544f;" transform="translate(15.11 225.560423)scale(0.08 -0.08)">
       <use xlink:href="#Roboto-Medium-55"/>
       <use x="56.835938" xlink:href="#Roboto-Medium-53"/>
       <use x="113.671875" xlink:href="#Roboto-Medium-48"/>
       <use x="170.507812" xlink:href="#Roboto-Medium-48"/>
      </g>
     </g>
    </g>
    <g id="ytick_5">
     <g id="line2d_10">
      <g>
       <use style="fill:#58544f;stroke:#58544f;stroke-width:0.8;" x="40.3" xlink:href="#ma02c514775" y="183.193782"/>
      </g>
     </g>
     <g id="text_10">
      <!-- 10000 -->
      <defs>
       <path d="M 37.453125 0 
L 25.640625 0 
L 25.640625 57.078125 
L 8.203125 51.125 
L 8.203125 61.140625 
L 35.9375 71.34375 
L 37.453125 71.34375 
z
" id="Roboto-Medium-49"/>
      </defs>
      <g style="fill:#58544f;" transform="translate(10.5625 186.193782)scale(0.08 -0.08)">
       <use xlink:href="#Roboto-Medium-49"/>
       <use x="56.835938" xlink:href="#Roboto-Medium-48"/>
       <use x="113.671875" xlink:href="#Roboto-Medium-48"/>
       <use x="170.507812" xlink:href="#Roboto-Medium-48"/>
       <use x="227.34375" xlink:href="#Roboto-Medium-48"/>
      </g>
     </g>
    </g>
    <g id="ytick_6">
     <g id="line2d_11">
      <g>
       <use style="fill:#58544f;stroke:#58544f;stroke-width:0.8;" x="40.3" xlink:href="#ma02c514775" y="143.827141"/>
      </g>
     </g>
     <g id="text_11">
      <!-- 12500 -->
      <g style="fill:#58544f;" transform="translate(10.5625 146.827141)scale(0.08 -0.08)">
       <use xlink:href="#Roboto-Medium-49"/>
       <use x="56.835938" xlink:href="#Roboto-Medium-50"/>
       <use x="113.671875" xlink:href="#Roboto-Medium-53"/>
       <use x="170.507812" xlink:href="#Roboto-Medium-48"/>
       <use x="227.34375" xlink:href="#Roboto-Medium-48"/>
      </g>
     </g>
    </g>
    <g id="ytick_7">
     <g id="line2d_12">
      <g>
       <use style="fill:#58544f;stroke:#58544f;stroke-width:0.8;" x="40.3" xlink:href="#ma02c514775" y="104.460499"/>
      </g>
     </g>
     <g id="text_12">
      <!-- 15000 -->
      <g style="fill:#58544f;" transform="translate(10.5625 107.460499)scale(0.08 -0.08)">
       <use xlink:href="#Roboto-Medium-49"/>
       <use x="56.835938" xlink:href="#Roboto-Medium-53"/>
       <use x="113.671875" xlink:href="#Roboto-Medium-48"/>
       <use x="170.507812" xlink:href="#Roboto-Medium-48"/>
       <use x="227.34375" xlink:href="#Roboto-Medium-48"/>
      </g>
     </g>
    </g>
    <g id="ytick_8">
     <g id="line2d_13">
      <g>
       <use style="fill:#58544f;stroke:#58544f;stroke-width:0.8;" x="40.3" xlink:href="#ma02c514775" y="65.093858"/>
      </g>
     </g>
     <g id="text_13">
      <!-- 17500 -->
      <g style="fill:#58544f;" transform="translate(10.5625 68.093858)scale(0.08 -0.08)">
       <use xlink:href="#Roboto-Medium-49"/>
       <use x="56.835938" xlink:href="#Roboto-Medium-55"/>
       <use x="113.671875" xlink:href="#Roboto-Medium-53"/>
       <use x="170.507812" xlink:href="#Roboto-Medium-48"/>
       <use x="227.34375" xlink:href="#Roboto-Medium-48"/>
      </g>
     </g>
    </g>
   </g>
   <g id="patch_63">
    <path d="M 40.3 340.660348 
L 40.3 27.159375 
" style="fill:none;stroke:#58544f;stroke-linecap:square;stroke-linejoin:miter;stroke-width:0.8;"/>
   </g>
   <g id="patch_64">
    <path d="M 549.35 340.660348 
L 549.35 27.159375 
" style="fill:none;stroke:#58544f;stroke-linecap:square;stroke-linejoin:miter;stroke-width:0.8;"/>
   </g>
   <g id="patch_65">
    <path d="M 40.3 340.660348 
L 549.35 340.660348 
" style="fill:none;stroke:#58544f;stroke-linecap:square;stroke-linejoin:miter;stroke-width:0.8;"/>
   </g>
   <g id="patch_66">
    <path d="M 40.3 27.159375 
L 549.35 27.159375 
" style="fill:none;stroke:#58544f;stroke-linecap:square;stroke-linejoin:miter;stroke-width:0.8;"/>
   </g>
   <g id="text_14">
    <!-- Distribution of Structure_Type (top 15 categories only) -->
    <defs>
     <path d="M 7.234375 0 
L 7.234375 71.09375 
L 28.21875 71.09375 
Q 37.640625 71.09375 44.9375 66.890625 
Q 52.25 62.703125 56.25 54.984375 
Q 60.25 47.265625 60.25 37.3125 
L 60.25 33.734375 
Q 60.25 23.640625 56.21875 15.96875 
Q 52.203125 8.296875 44.75 4.140625 
Q 37.3125 0 27.6875 0 
z
M 19.578125 61.140625 
L 19.578125 9.859375 
L 27.640625 9.859375 
Q 37.359375 9.859375 42.546875 15.9375 
Q 47.75 22.015625 47.859375 33.40625 
L 47.859375 37.359375 
Q 47.859375 48.921875 42.828125 55.03125 
Q 37.796875 61.140625 28.21875 61.140625 
z
" id="Roboto-Medium-68"/>
     <path d="M 52.4375 25.875 
Q 52.4375 13.578125 46.9375 6.296875 
Q 41.453125 -0.984375 31.84375 -0.984375 
Q 22.5625 -0.984375 17.390625 5.71875 
L 16.796875 0 
L 6.0625 0 
L 6.0625 75 
L 17.921875 75 
L 17.921875 47.75 
Q 23.046875 53.8125 31.734375 53.8125 
Q 41.40625 53.8125 46.921875 46.625 
Q 52.4375 39.453125 52.4375 26.5625 
z
M 40.578125 26.90625 
Q 40.578125 35.5 37.546875 39.796875 
Q 34.515625 44.09375 28.765625 44.09375 
Q 21.046875 44.09375 17.921875 37.359375 
L 17.921875 15.578125 
Q 21.09375 8.6875 28.859375 8.6875 
Q 34.421875 8.6875 37.453125 12.84375 
Q 40.484375 17 40.578125 25.390625 
z
" id="Roboto-Medium-98"/>
     <path d="M 17.09375 52.828125 
L 17.4375 46.734375 
Q 23.296875 53.8125 32.8125 53.8125 
Q 49.3125 53.8125 49.609375 34.90625 
L 49.609375 0 
L 37.75 0 
L 37.75 34.234375 
Q 37.75 39.265625 35.578125 41.671875 
Q 33.40625 44.09375 28.46875 44.09375 
Q 21.296875 44.09375 17.78125 37.59375 
L 17.78125 0 
L 5.90625 0 
L 5.90625 52.828125 
z
" id="Roboto-Medium-110"/>
     <path id="Roboto-Medium-32"/>
     <path d="M 44.921875 -9.328125 
L 0.140625 -9.328125 
L 0.140625 0 
L 44.921875 0 
z
" id="Roboto-Medium-95"/>
     <path d="M 58.59375 61.140625 
L 36.421875 61.140625 
L 36.421875 0 
L 24.171875 0 
L 24.171875 61.140625 
L 2.203125 61.140625 
L 2.203125 71.09375 
L 58.59375 71.09375 
z
" id="Roboto-Medium-84"/>
     <path d="M 6.25 28.90625 
Q 6.25 40.1875 9.28125 50.3125 
Q 12.3125 60.453125 18.171875 68.4375 
Q 24.03125 76.421875 30.5625 79.640625 
L 32.90625 72.703125 
Q 26.03125 67.484375 21.75 56.765625 
Q 17.484375 46.046875 17.09375 32.234375 
L 17.046875 28.03125 
Q 17.046875 13.234375 21.21875 1.625 
Q 25.390625 -9.96875 32.90625 -16.015625 
L 30.5625 -22.609375 
Q 24.03125 -19.390625 18.140625 -11.359375 
Q 12.25 -3.328125 9.25 6.75 
Q 6.25 16.84375 6.25 28.90625 
z
" id="Roboto-Medium-40"/>
     <path d="M 4 26.8125 
Q 4 39.109375 9.78125 46.453125 
Q 15.578125 53.8125 25.140625 53.8125 
Q 34.1875 53.8125 39.359375 47.515625 
L 39.890625 52.828125 
L 50.59375 52.828125 
L 50.59375 1.609375 
Q 50.59375 -8.796875 44.109375 -14.796875 
Q 37.640625 -20.796875 26.65625 -20.796875 
Q 20.84375 -20.796875 15.296875 -18.375 
Q 9.765625 -15.96875 6.890625 -12.0625 
L 12.5 -4.9375 
Q 17.96875 -11.421875 25.984375 -11.421875 
Q 31.890625 -11.421875 35.296875 -8.21875 
Q 38.71875 -5.03125 38.71875 1.171875 
L 38.71875 4.734375 
Q 33.59375 -0.984375 25.046875 -0.984375 
Q 15.765625 -0.984375 9.875 6.390625 
Q 4 13.765625 4 26.8125 
z
M 15.828125 25.78125 
Q 15.828125 17.828125 19.0625 13.25 
Q 22.3125 8.6875 28.078125 8.6875 
Q 35.25 8.6875 38.71875 14.84375 
L 38.71875 38.09375 
Q 35.359375 44.09375 28.171875 44.09375 
Q 22.3125 44.09375 19.0625 39.453125 
Q 15.828125 34.8125 15.828125 25.78125 
z
" id="Roboto-Medium-103"/>
     <path d="M 18.703125 0 
L 6.84375 0 
L 6.84375 75 
L 18.703125 75 
z
" id="Roboto-Medium-108"/>
     <path d="M 28.953125 28.125 
Q 28.953125 17.28125 25.96875 7.203125 
Q 23 -2.875 16.9375 -11.15625 
Q 10.890625 -19.4375 4.296875 -22.609375 
L 1.953125 -16.015625 
Q 9.28125 -10.359375 13.546875 1.28125 
Q 17.828125 12.9375 17.828125 27.875 
L 17.828125 29 
Q 17.828125 42.578125 14.109375 53.734375 
Q 10.40625 64.890625 3.46875 71.625 
L 1.953125 73 
L 4.296875 79.640625 
Q 10.546875 76.609375 16.40625 68.890625 
Q 22.265625 61.1875 25.390625 51.640625 
Q 28.515625 42.09375 28.90625 31.9375 
z
" id="Roboto-Medium-41"/>
    </defs>
    <g style="fill:#262626;" transform="translate(149.015625 21.159375)scale(0.12 -0.12)">
     <use xlink:href="#Roboto-Medium-68"/>
     <use x="65.332031" xlink:href="#Roboto-Medium-105"/>
     <use x="90.869141" xlink:href="#Roboto-Medium-115"/>
     <use x="142.480469" xlink:href="#Roboto-Medium-116"/>
     <use x="175.732422" xlink:href="#Roboto-Medium-114"/>
     <use x="210.888672" xlink:href="#Roboto-Medium-105"/>
     <use x="236.425781" xlink:href="#Roboto-Medium-98"/>
     <use x="292.724609" xlink:href="#Roboto-Medium-117"/>
     <use x="348.291016" xlink:href="#Roboto-Medium-116"/>
     <use x="381.542969" xlink:href="#Roboto-Medium-105"/>
     <use x="407.080078" xlink:href="#Roboto-Medium-111"/>
     <use x="464.013672" xlink:href="#Roboto-Medium-110"/>
     <use x="519.628906" xlink:href="#Roboto-Medium-32"/>
     <use x="544.53125" xlink:href="#Roboto-Medium-111"/>
     <use x="601.464844" xlink:href="#Roboto-Medium-102"/>
     <use x="636.914062" xlink:href="#Roboto-Medium-32"/>
     <use x="661.816406" xlink:href="#Roboto-Medium-83"/>
     <use x="722.167969" xlink:href="#Roboto-Medium-116"/>
     <use x="755.419922" xlink:href="#Roboto-Medium-114"/>
     <use x="790.576172" xlink:href="#Roboto-Medium-117"/>
     <use x="846.142578" xlink:href="#Roboto-Medium-99"/>
     <use x="898.486328" xlink:href="#Roboto-Medium-116"/>
     <use x="931.738281" xlink:href="#Roboto-Medium-117"/>
     <use x="987.304688" xlink:href="#Roboto-Medium-114"/>
     <use x="1022.460938" xlink:href="#Roboto-Medium-101"/>
     <use x="1076.123047" xlink:href="#Roboto-Medium-95"/>
     <use x="1121.240234" xlink:href="#Roboto-Medium-84"/>
     <use x="1181.933594" xlink:href="#Roboto-Medium-121"/>
     <use x="1230.615234" xlink:href="#Roboto-Medium-112"/>
     <use x="1286.914062" xlink:href="#Roboto-Medium-101"/>
     <use x="1340.576172" xlink:href="#Roboto-Medium-32"/>
     <use x="1365.478516" xlink:href="#Roboto-Medium-40"/>
     <use x="1400.341797" xlink:href="#Roboto-Medium-116"/>
     <use x="1433.59375" xlink:href="#Roboto-Medium-111"/>
     <use x="1490.527344" xlink:href="#Roboto-Medium-112"/>
     <use x="1546.826172" xlink:href="#Roboto-Medium-32"/>
     <use x="1571.728516" xlink:href="#Roboto-Medium-49"/>
     <use x="1628.564453" xlink:href="#Roboto-Medium-53"/>
     <use x="1685.400391" xlink:href="#Roboto-Medium-32"/>
     <use x="1710.302734" xlink:href="#Roboto-Medium-99"/>
     <use x="1762.646484" xlink:href="#Roboto-Medium-97"/>
     <use x="1816.748047" xlink:href="#Roboto-Medium-116"/>
     <use x="1850" xlink:href="#Roboto-Medium-101"/>
     <use x="1903.662109" xlink:href="#Roboto-Medium-103"/>
     <use x="1960.351562" xlink:href="#Roboto-Medium-111"/>
     <use x="2017.285156" xlink:href="#Roboto-Medium-114"/>
     <use x="2052.441406" xlink:href="#Roboto-Medium-105"/>
     <use x="2077.978516" xlink:href="#Roboto-Medium-101"/>
     <use x="2131.640625" xlink:href="#Roboto-Medium-115"/>
     <use x="2183.251953" xlink:href="#Roboto-Medium-32"/>
     <use x="2208.154297" xlink:href="#Roboto-Medium-111"/>
     <use x="2265.087891" xlink:href="#Roboto-Medium-110"/>
     <use x="2320.703125" xlink:href="#Roboto-Medium-108"/>
     <use x="2346.240234" xlink:href="#Roboto-Medium-121"/>
     <use x="2394.921875" xlink:href="#Roboto-Medium-41"/>
    </g>
   </g>
  </g>
 </g>
 <defs>
  <clipPath id="p890c025abc">
   <rect height="313.500973" width="509.05" x="40.3" y="27.159375"/>
  </clipPath>
 </defs>
</svg>
