<?xml version="1.0" encoding="utf-8" standalone="no"?>
<!DOCTYPE svg PUBLIC "-//W3C//DTD SVG 1.1//EN"
  "http://www.w3.org/Graphics/SVG/1.1/DTD/svg11.dtd">
<!-- Created with matplotlib (https://matplotlib.org/) -->
<svg height="288pt" version="1.1" viewBox="0 0 1080 288" width="1080pt" xmlns="http://www.w3.org/2000/svg" xmlns:xlink="http://www.w3.org/1999/xlink">
 <defs>
  <style type="text/css">
*{stroke-linecap:butt;stroke-linejoin:round;}
  </style>
 </defs>
 <g id="figure_1">
  <g id="patch_1">
   <path d="M 0 288 
L 1080 288 
L 1080 0 
L 0 0 
z
" style="fill:#ffffff;"/>
  </g>
  <g id="axes_1">
   <g id="patch_2">
    <path d="M 26.8 262.621875 
L 1069.2 262.621875 
L 1069.2 11.902053 
L 26.8 11.902053 
z
" style="fill:#ffffff;"/>
   </g>
   <g id="PolyCollection_1">
    <defs>
     <path d="M 134.768136 -36.774481 
L 127.311864 -36.774481 
L 99.992615 -37.207126 
L 48.46085 -37.639771 
L 47.648 -38.072416 
L 83.840871 -38.505061 
L 104.455293 -38.937706 
L 111.822465 -39.370351 
L 114.548479 -39.802997 
L 115.806239 -40.235642 
L 117.286603 -40.668287 
L 118.75352 -41.100932 
L 119.874358 -41.533577 
L 120.920607 -41.966222 
L 122.186325 -42.398867 
L 123.337954 -42.831513 
L 124.061727 -43.264158 
L 124.478729 -43.696803 
L 124.8667 -44.129448 
L 125.330213 -44.562093 
L 125.911328 -44.994738 
L 126.534101 -45.427384 
L 127.133853 -45.860029 
L 127.648838 -46.292674 
L 127.956183 -46.725319 
L 128.233445 -47.157964 
L 128.436282 -47.590609 
L 128.607646 -48.023254 
L 128.922217 -48.4559 
L 129.194674 -48.888545 
L 129.449666 -49.32119 
L 129.701186 -49.753835 
L 129.893106 -50.18648 
L 130.02837 -50.619125 
L 130.129296 -51.05177 
L 130.224406 -51.484416 
L 130.316348 -51.917061 
L 130.412981 -52.349706 
L 130.482632 -52.782351 
L 130.544032 -53.214996 
L 130.609555 -53.647641 
L 130.66618 -54.080286 
L 130.707118 -54.512932 
L 130.754205 -54.945577 
L 130.799786 -55.378222 
L 130.848414 -55.810867 
L 130.892906 -56.243512 
L 130.921531 -56.676157 
L 130.92045 -57.108803 
L 130.937583 -57.541448 
L 130.96107 -57.974093 
L 130.966319 -58.406738 
L 130.981107 -58.839383 
L 130.997775 -59.272028 
L 131.004557 -59.704673 
L 131.005271 -60.137319 
L 130.999289 -60.569964 
L 130.999138 -61.002609 
L 131.00885 -61.435254 
L 131.01724 -61.867899 
L 131.020264 -62.300544 
L 131.020491 -62.733189 
L 131.023543 -63.165835 
L 131.028495 -63.59848 
L 131.029433 -64.031125 
L 131.027557 -64.46377 
L 131.026955 -64.896415 
L 131.030861 -65.32906 
L 131.031401 -65.761705 
L 131.026385 -66.194351 
L 131.024068 -66.626996 
L 131.030903 -67.059641 
L 131.032611 -67.492286 
L 131.024847 -67.924931 
L 131.022453 -68.357576 
L 131.02612 -68.790222 
L 131.030191 -69.222867 
L 131.032935 -69.655512 
L 131.032103 -70.088157 
L 131.035994 -70.520802 
L 131.03933 -70.953447 
L 131.038874 -71.386092 
L 131.036536 -71.818738 
L 131.037093 -72.251383 
L 131.03934 -72.684028 
L 131.039732 -73.116673 
L 131.037929 -73.549318 
L 131.034076 -73.981963 
L 131.034048 -74.414608 
L 131.037866 -74.847254 
L 131.039171 -75.279899 
L 131.037192 -75.712544 
L 131.036468 -76.145189 
L 131.038808 -76.577834 
L 131.039892 -77.010479 
L 131.039994 -77.443124 
L 131.039869 -77.87577 
L 131.038667 -78.308415 
L 131.036378 -78.74106 
L 131.037366 -79.173705 
L 131.039488 -79.60635 
L 131.040512 -79.60635 
L 131.040512 -79.60635 
L 131.042634 -79.173705 
L 131.043622 -78.74106 
L 131.041333 -78.308415 
L 131.040131 -77.87577 
L 131.040006 -77.443124 
L 131.040108 -77.010479 
L 131.041192 -76.577834 
L 131.043532 -76.145189 
L 131.042808 -75.712544 
L 131.040829 -75.279899 
L 131.042134 -74.847254 
L 131.045952 -74.414608 
L 131.045924 -73.981963 
L 131.042071 -73.549318 
L 131.040268 -73.116673 
L 131.04066 -72.684028 
L 131.042907 -72.251383 
L 131.043464 -71.818738 
L 131.041126 -71.386092 
L 131.04067 -70.953447 
L 131.044006 -70.520802 
L 131.047897 -70.088157 
L 131.047065 -69.655512 
L 131.049809 -69.222867 
L 131.05388 -68.790222 
L 131.057547 -68.357576 
L 131.055153 -67.924931 
L 131.047389 -67.492286 
L 131.049097 -67.059641 
L 131.055932 -66.626996 
L 131.053615 -66.194351 
L 131.048599 -65.761705 
L 131.049139 -65.32906 
L 131.053045 -64.896415 
L 131.052443 -64.46377 
L 131.050567 -64.031125 
L 131.051505 -63.59848 
L 131.056457 -63.165835 
L 131.059509 -62.733189 
L 131.059736 -62.300544 
L 131.06276 -61.867899 
L 131.07115 -61.435254 
L 131.080862 -61.002609 
L 131.080711 -60.569964 
L 131.074729 -60.137319 
L 131.075443 -59.704673 
L 131.082225 -59.272028 
L 131.098893 -58.839383 
L 131.113681 -58.406738 
L 131.11893 -57.974093 
L 131.142417 -57.541448 
L 131.15955 -57.108803 
L 131.158469 -56.676157 
L 131.187094 -56.243512 
L 131.231586 -55.810867 
L 131.280214 -55.378222 
L 131.325795 -54.945577 
L 131.372882 -54.512932 
L 131.41382 -54.080286 
L 131.470445 -53.647641 
L 131.535968 -53.214996 
L 131.597368 -52.782351 
L 131.667019 -52.349706 
L 131.763652 -51.917061 
L 131.855594 -51.484416 
L 131.950704 -51.05177 
L 132.05163 -50.619125 
L 132.186894 -50.18648 
L 132.378814 -49.753835 
L 132.630334 -49.32119 
L 132.885326 -48.888545 
L 133.157783 -48.4559 
L 133.472354 -48.023254 
L 133.643718 -47.590609 
L 133.846555 -47.157964 
L 134.123817 -46.725319 
L 134.431162 -46.292674 
L 134.946147 -45.860029 
L 135.545899 -45.427384 
L 136.168672 -44.994738 
L 136.749787 -44.562093 
L 137.2133 -44.129448 
L 137.601271 -43.696803 
L 138.018273 -43.264158 
L 138.742046 -42.831513 
L 139.893675 -42.398867 
L 141.159393 -41.966222 
L 142.205642 -41.533577 
L 143.32648 -41.100932 
L 144.793397 -40.668287 
L 146.273761 -40.235642 
L 147.531521 -39.802997 
L 150.257535 -39.370351 
L 157.624707 -38.937706 
L 178.239129 -38.505061 
L 214.432 -38.072416 
L 213.61915 -37.639771 
L 162.087385 -37.207126 
L 134.768136 -36.774481 
z
" id="mc74b231f56" style="stroke:#3d3d3d;stroke-width:3;"/>
    </defs>
    <g clip-path="url(#p899c0c6792)">
     <use style="fill:#1e84cf;stroke:#3d3d3d;stroke-width:3;" x="0" xlink:href="#mc74b231f56" y="288"/>
    </g>
   </g>
   <g id="PolyCollection_2">
    <defs>
     <path d="M 341.741911 -37.766584 
L 337.298089 -37.766584 
L 301.996073 -38.375472 
L 256.128 -38.98436 
L 289.926612 -39.593248 
L 317.722473 -40.202135 
L 331.761245 -40.811023 
L 337.32494 -41.419911 
L 338.84215 -42.028799 
L 339.225869 -42.637687 
L 339.327686 -43.246575 
L 339.356943 -43.855463 
L 339.338695 -44.464351 
L 339.285917 -45.073239 
L 339.243171 -45.682127 
L 339.150217 -46.291015 
L 339.097206 -46.899903 
L 339.064035 -47.508791 
L 339.030515 -48.117678 
L 338.927795 -48.726566 
L 338.852478 -49.335454 
L 338.851774 -49.944342 
L 338.814469 -50.55323 
L 338.822907 -51.162118 
L 338.86991 -51.771006 
L 338.883815 -52.379894 
L 338.92609 -52.988782 
L 339.033775 -53.59767 
L 339.081489 -54.206558 
L 339.116051 -54.815446 
L 339.11769 -55.424333 
L 339.140253 -56.033221 
L 339.191455 -56.642109 
L 339.249014 -57.250997 
L 339.285832 -57.859885 
L 339.307963 -58.468773 
L 339.360783 -59.077661 
L 339.359788 -59.686549 
L 339.381914 -60.295437 
L 339.385523 -60.904325 
L 339.428369 -61.513213 
L 339.438652 -62.122101 
L 339.439686 -62.730988 
L 339.462885 -63.339876 
L 339.476149 -63.948764 
L 339.482449 -64.557652 
L 339.495231 -65.16654 
L 339.49312 -65.775428 
L 339.490451 -66.384316 
L 339.502123 -66.993204 
L 339.504854 -67.602092 
L 339.501958 -68.21098 
L 339.512008 -68.819868 
L 339.510245 -69.428756 
L 339.508323 -70.037644 
L 339.50877 -70.646531 
L 339.510632 -71.255419 
L 339.505921 -71.864307 
L 339.509073 -72.473195 
L 339.511016 -73.082083 
L 339.511612 -73.690971 
L 339.518721 -74.299859 
L 339.517028 -74.908747 
L 339.515575 -75.517635 
L 339.516369 -76.126523 
L 339.515618 -76.735411 
L 339.511789 -77.344299 
L 339.513723 -77.953186 
L 339.516757 -78.562074 
L 339.518254 -79.170962 
L 339.519889 -79.77985 
L 339.519999 -80.388738 
L 339.52 -80.997626 
L 339.52 -81.606514 
L 339.519999 -82.215402 
L 339.519841 -82.82429 
L 339.518071 -83.433178 
L 339.518284 -84.042066 
L 339.519888 -84.650954 
L 339.519998 -85.259842 
L 339.519773 -85.868729 
L 339.517806 -86.477617 
L 339.517193 -87.086505 
L 339.517063 -87.695393 
L 339.517034 -88.304281 
L 339.517287 -88.913169 
L 339.518272 -89.522057 
L 339.519889 -90.130945 
L 339.519999 -90.739833 
L 339.52 -91.348721 
L 339.52 -91.957609 
L 339.519992 -92.566497 
L 339.519489 -93.175384 
L 339.517509 -93.784272 
L 339.519107 -94.39316 
L 339.519977 -95.002048 
L 339.52 -95.610936 
L 339.519956 -96.219824 
L 339.518816 -96.828712 
L 339.517651 -97.4376 
L 339.519658 -98.046488 
L 339.520342 -98.046488 
L 339.520342 -98.046488 
L 339.522349 -97.4376 
L 339.521184 -96.828712 
L 339.520044 -96.219824 
L 339.52 -95.610936 
L 339.520023 -95.002048 
L 339.520893 -94.39316 
L 339.522491 -93.784272 
L 339.520511 -93.175384 
L 339.520008 -92.566497 
L 339.52 -91.957609 
L 339.52 -91.348721 
L 339.520001 -90.739833 
L 339.520111 -90.130945 
L 339.521728 -89.522057 
L 339.522713 -88.913169 
L 339.522966 -88.304281 
L 339.522937 -87.695393 
L 339.522807 -87.086505 
L 339.522194 -86.477617 
L 339.520227 -85.868729 
L 339.520002 -85.259842 
L 339.520112 -84.650954 
L 339.521716 -84.042066 
L 339.521929 -83.433178 
L 339.520159 -82.82429 
L 339.520001 -82.215402 
L 339.52 -81.606514 
L 339.52 -80.997626 
L 339.520001 -80.388738 
L 339.520111 -79.77985 
L 339.521746 -79.170962 
L 339.523243 -78.562074 
L 339.526277 -77.953186 
L 339.528211 -77.344299 
L 339.524382 -76.735411 
L 339.523631 -76.126523 
L 339.524425 -75.517635 
L 339.522972 -74.908747 
L 339.521279 -74.299859 
L 339.528388 -73.690971 
L 339.528984 -73.082083 
L 339.530927 -72.473195 
L 339.534079 -71.864307 
L 339.529368 -71.255419 
L 339.53123 -70.646531 
L 339.531677 -70.037644 
L 339.529755 -69.428756 
L 339.527992 -68.819868 
L 339.538042 -68.21098 
L 339.535146 -67.602092 
L 339.537877 -66.993204 
L 339.549549 -66.384316 
L 339.54688 -65.775428 
L 339.544769 -65.16654 
L 339.557551 -64.557652 
L 339.563851 -63.948764 
L 339.577115 -63.339876 
L 339.600314 -62.730988 
L 339.601348 -62.122101 
L 339.611631 -61.513213 
L 339.654477 -60.904325 
L 339.658086 -60.295437 
L 339.680212 -59.686549 
L 339.679217 -59.077661 
L 339.732037 -58.468773 
L 339.754168 -57.859885 
L 339.790986 -57.250997 
L 339.848545 -56.642109 
L 339.899747 -56.033221 
L 339.92231 -55.424333 
L 339.923949 -54.815446 
L 339.958511 -54.206558 
L 340.006225 -53.59767 
L 340.11391 -52.988782 
L 340.156185 -52.379894 
L 340.17009 -51.771006 
L 340.217093 -51.162118 
L 340.225531 -50.55323 
L 340.188226 -49.944342 
L 340.187522 -49.335454 
L 340.112205 -48.726566 
L 340.009485 -48.117678 
L 339.975965 -47.508791 
L 339.942794 -46.899903 
L 339.889783 -46.291015 
L 339.796829 -45.682127 
L 339.754083 -45.073239 
L 339.701305 -44.464351 
L 339.683057 -43.855463 
L 339.712314 -43.246575 
L 339.814131 -42.637687 
L 340.19785 -42.028799 
L 341.71506 -41.419911 
L 347.278755 -40.811023 
L 361.317527 -40.202135 
L 389.113388 -39.593248 
L 422.912 -38.98436 
L 377.043927 -38.375472 
L 341.741911 -37.766584 
z
" id="mce0f41062a" style="stroke:#3d3d3d;stroke-width:3;"/>
    </defs>
    <g clip-path="url(#p899c0c6792)">
     <use style="fill:#e37d3d;stroke:#3d3d3d;stroke-width:3;" x="0" xlink:href="#mce0f41062a" y="288"/>
    </g>
   </g>
   <g id="PolyCollection_3">
    <defs>
     <path d="M 560.473282 -38.474828 
L 535.526718 -38.474828 
L 464.608 -39.041797 
L 489.766963 -39.608766 
L 543.746004 -40.175735 
L 547.967419 -40.742704 
L 547.999974 -41.309673 
L 547.99999 -41.876641 
L 547.999594 -42.44361 
L 547.997919 -43.010579 
L 547.993848 -43.577548 
L 547.979824 -44.144517 
L 547.951554 -44.711486 
L 547.914255 -45.278455 
L 547.862083 -45.845424 
L 547.806575 -46.412393 
L 547.747029 -46.979362 
L 547.719747 -47.546331 
L 547.682832 -48.113299 
L 547.675762 -48.680268 
L 547.631073 -49.247237 
L 547.552005 -49.814206 
L 547.505754 -50.381175 
L 547.479016 -50.948144 
L 547.442656 -51.515113 
L 547.489196 -52.082082 
L 547.532948 -52.649051 
L 547.529452 -53.21602 
L 547.538163 -53.782989 
L 547.614194 -54.349957 
L 547.662985 -54.916926 
L 547.715843 -55.483895 
L 547.75983 -56.050864 
L 547.756071 -56.617833 
L 547.771854 -57.184802 
L 547.793049 -57.751771 
L 547.794485 -58.31874 
L 547.82395 -58.885709 
L 547.850647 -59.452678 
L 547.87681 -60.019647 
L 547.898695 -60.586615 
L 547.923584 -61.153584 
L 547.931548 -61.720553 
L 547.939035 -62.287522 
L 547.95466 -62.854491 
L 547.953847 -63.42146 
L 547.965072 -63.988429 
L 547.979481 -64.555398 
L 547.981089 -65.122367 
L 547.983414 -65.689336 
L 547.986595 -66.256305 
L 547.989515 -66.823273 
L 547.992081 -67.390242 
L 547.99396 -67.957211 
L 547.997706 -68.52418 
L 547.996202 -69.091149 
L 547.993415 -69.658118 
L 547.992621 -70.225087 
L 547.992641 -70.792056 
L 547.994991 -71.359025 
L 547.99716 -71.925994 
L 547.996248 -72.492963 
L 547.998046 -73.059931 
L 547.997492 -73.6269 
L 547.99621 -74.193869 
L 547.997794 -74.760838 
L 547.999572 -75.327807 
L 547.999972 -75.894776 
L 547.999448 -76.461745 
L 547.997921 -77.028714 
L 547.997398 -77.595683 
L 547.99573 -78.162652 
L 547.995666 -78.729621 
L 547.998618 -79.296589 
L 547.998438 -79.863558 
L 547.998785 -80.430527 
L 547.999898 -80.997496 
L 547.999999 -81.564465 
L 548 -82.131434 
L 548 -82.698403 
L 548 -83.265372 
L 547.999961 -83.832341 
L 547.998845 -84.39931 
L 547.995921 -84.966279 
L 547.995777 -85.533247 
L 547.997634 -86.100216 
L 547.999784 -86.667185 
L 547.999987 -87.234154 
L 547.999581 -87.801123 
L 547.998224 -88.368092 
L 547.999086 -88.935061 
L 547.99863 -89.50203 
L 547.998603 -90.068999 
L 547.999848 -90.635968 
L 547.999998 -91.202937 
L 548 -91.769905 
L 547.999999 -92.336874 
L 547.999923 -92.903843 
L 547.998911 -93.470812 
L 547.998396 -94.037781 
L 547.999755 -94.60475 
L 548.000245 -94.60475 
L 548.000245 -94.60475 
L 548.001604 -94.037781 
L 548.001089 -93.470812 
L 548.000077 -92.903843 
L 548.000001 -92.336874 
L 548 -91.769905 
L 548.000002 -91.202937 
L 548.000152 -90.635968 
L 548.001397 -90.068999 
L 548.00137 -89.50203 
L 548.000914 -88.935061 
L 548.001776 -88.368092 
L 548.000419 -87.801123 
L 548.000013 -87.234154 
L 548.000216 -86.667185 
L 548.002366 -86.100216 
L 548.004223 -85.533247 
L 548.004079 -84.966279 
L 548.001155 -84.39931 
L 548.000039 -83.832341 
L 548 -83.265372 
L 548 -82.698403 
L 548 -82.131434 
L 548.000001 -81.564465 
L 548.000102 -80.997496 
L 548.001215 -80.430527 
L 548.001562 -79.863558 
L 548.001382 -79.296589 
L 548.004334 -78.729621 
L 548.00427 -78.162652 
L 548.002602 -77.595683 
L 548.002079 -77.028714 
L 548.000552 -76.461745 
L 548.000028 -75.894776 
L 548.000428 -75.327807 
L 548.002206 -74.760838 
L 548.00379 -74.193869 
L 548.002508 -73.6269 
L 548.001954 -73.059931 
L 548.003752 -72.492963 
L 548.00284 -71.925994 
L 548.005009 -71.359025 
L 548.007359 -70.792056 
L 548.007379 -70.225087 
L 548.006585 -69.658118 
L 548.003798 -69.091149 
L 548.002294 -68.52418 
L 548.00604 -67.957211 
L 548.007919 -67.390242 
L 548.010485 -66.823273 
L 548.013405 -66.256305 
L 548.016586 -65.689336 
L 548.018911 -65.122367 
L 548.020519 -64.555398 
L 548.034928 -63.988429 
L 548.046153 -63.42146 
L 548.04534 -62.854491 
L 548.060965 -62.287522 
L 548.068452 -61.720553 
L 548.076416 -61.153584 
L 548.101305 -60.586615 
L 548.12319 -60.019647 
L 548.149353 -59.452678 
L 548.17605 -58.885709 
L 548.205515 -58.31874 
L 548.206951 -57.751771 
L 548.228146 -57.184802 
L 548.243929 -56.617833 
L 548.24017 -56.050864 
L 548.284157 -55.483895 
L 548.337015 -54.916926 
L 548.385806 -54.349957 
L 548.461837 -53.782989 
L 548.470548 -53.21602 
L 548.467052 -52.649051 
L 548.510804 -52.082082 
L 548.557344 -51.515113 
L 548.520984 -50.948144 
L 548.494246 -50.381175 
L 548.447995 -49.814206 
L 548.368927 -49.247237 
L 548.324238 -48.680268 
L 548.317168 -48.113299 
L 548.280253 -47.546331 
L 548.252971 -46.979362 
L 548.193425 -46.412393 
L 548.137917 -45.845424 
L 548.085745 -45.278455 
L 548.048446 -44.711486 
L 548.020176 -44.144517 
L 548.006152 -43.577548 
L 548.002081 -43.010579 
L 548.000406 -42.44361 
L 548.00001 -41.876641 
L 548.000026 -41.309673 
L 548.032581 -40.742704 
L 552.253996 -40.175735 
L 606.233037 -39.608766 
L 631.392 -39.041797 
L 560.473282 -38.474828 
z
" id="mfd546036fd" style="stroke:#3d3d3d;stroke-width:3;"/>
    </defs>
    <g clip-path="url(#p899c0c6792)">
     <use style="fill:#3a923a;stroke:#3d3d3d;stroke-width:3;" x="0" xlink:href="#mfd546036fd" y="288"/>
    </g>
   </g>
   <g id="PolyCollection_4">
    <defs>
     <path d="M 839.872 -39.0025 
L 673.088 -39.0025 
L 750.288918 -41.282289 
L 755.144638 -43.562078 
L 756.478069 -45.841867 
L 756.48 -48.121656 
L 756.48 -50.401444 
L 756.48 -52.681233 
L 756.48 -54.961022 
L 756.48 -57.240811 
L 756.48 -59.5206 
L 756.48 -61.800388 
L 756.48 -64.080177 
L 756.48 -66.359966 
L 756.48 -68.639755 
L 756.48 -70.919544 
L 756.48 -73.199332 
L 756.48 -75.479121 
L 756.48 -77.75891 
L 756.48 -80.038699 
L 756.48 -82.318488 
L 756.48 -84.598276 
L 756.48 -86.878065 
L 756.48 -89.157854 
L 756.48 -91.437643 
L 756.48 -93.717432 
L 756.48 -95.99722 
L 756.48 -98.277009 
L 756.48 -100.556798 
L 756.48 -102.836587 
L 756.48 -105.116376 
L 756.48 -107.396164 
L 756.48 -109.675953 
L 756.48 -111.955742 
L 756.48 -114.235531 
L 756.48 -116.51532 
L 756.48 -118.795108 
L 756.48 -121.074897 
L 756.48 -123.354686 
L 756.48 -125.634475 
L 756.48 -127.914264 
L 756.48 -130.194052 
L 756.48 -132.473841 
L 756.48 -134.75363 
L 756.48 -137.033419 
L 756.48 -139.313208 
L 756.48 -141.592996 
L 756.48 -143.872785 
L 756.48 -146.152574 
L 756.48 -148.432363 
L 756.48 -150.712152 
L 756.48 -152.991941 
L 756.48 -155.271729 
L 756.48 -157.551518 
L 756.48 -159.831307 
L 756.48 -162.111096 
L 756.48 -164.390885 
L 756.48 -166.670673 
L 756.48 -168.950462 
L 756.48 -171.230251 
L 756.48 -173.51004 
L 756.48 -175.789829 
L 756.48 -178.069617 
L 756.48 -180.349406 
L 756.48 -182.629195 
L 756.48 -184.908984 
L 756.48 -187.188773 
L 756.48 -189.468561 
L 756.479993 -191.74835 
L 756.476204 -194.028139 
L 756.478228 -196.307928 
L 756.454938 -198.587717 
L 756.48 -200.867505 
L 756.475218 -203.147294 
L 756.479996 -205.427083 
L 756.48 -207.706872 
L 756.458505 -209.986661 
L 756.48 -212.266449 
L 756.479934 -214.546238 
L 756.47904 -216.826027 
L 756.48 -219.105816 
L 756.48 -221.385605 
L 756.434335 -223.665393 
L 756.455359 -225.945182 
L 756.471086 -228.224971 
L 756.479676 -230.50476 
L 756.453959 -232.784549 
L 756.453469 -235.064337 
L 756.48 -237.344126 
L 756.48 -239.623915 
L 756.431197 -241.903704 
L 756.48 -244.183493 
L 756.48 -246.463281 
L 756.48 -248.74307 
L 756.48 -251.022859 
L 756.48 -253.302648 
L 756.464208 -255.582437 
L 756.48 -257.862225 
L 756.48 -260.142014 
L 756.479993 -262.421803 
L 756.476358 -264.701592 
L 756.483642 -264.701592 
L 756.483642 -264.701592 
L 756.480007 -262.421803 
L 756.48 -260.142014 
L 756.48 -257.862225 
L 756.495792 -255.582437 
L 756.48 -253.302648 
L 756.48 -251.022859 
L 756.48 -248.74307 
L 756.48 -246.463281 
L 756.48 -244.183493 
L 756.528803 -241.903704 
L 756.48 -239.623915 
L 756.48 -237.344126 
L 756.506531 -235.064337 
L 756.506041 -232.784549 
L 756.480324 -230.50476 
L 756.488914 -228.224971 
L 756.504641 -225.945182 
L 756.525665 -223.665393 
L 756.48 -221.385605 
L 756.48 -219.105816 
L 756.48096 -216.826027 
L 756.480066 -214.546238 
L 756.48 -212.266449 
L 756.501495 -209.986661 
L 756.48 -207.706872 
L 756.480004 -205.427083 
L 756.484782 -203.147294 
L 756.48 -200.867505 
L 756.505062 -198.587717 
L 756.481772 -196.307928 
L 756.483796 -194.028139 
L 756.480007 -191.74835 
L 756.48 -189.468561 
L 756.48 -187.188773 
L 756.48 -184.908984 
L 756.48 -182.629195 
L 756.48 -180.349406 
L 756.48 -178.069617 
L 756.48 -175.789829 
L 756.48 -173.51004 
L 756.48 -171.230251 
L 756.48 -168.950462 
L 756.48 -166.670673 
L 756.48 -164.390885 
L 756.48 -162.111096 
L 756.48 -159.831307 
L 756.48 -157.551518 
L 756.48 -155.271729 
L 756.48 -152.991941 
L 756.48 -150.712152 
L 756.48 -148.432363 
L 756.48 -146.152574 
L 756.48 -143.872785 
L 756.48 -141.592996 
L 756.48 -139.313208 
L 756.48 -137.033419 
L 756.48 -134.75363 
L 756.48 -132.473841 
L 756.48 -130.194052 
L 756.48 -127.914264 
L 756.48 -125.634475 
L 756.48 -123.354686 
L 756.48 -121.074897 
L 756.48 -118.795108 
L 756.48 -116.51532 
L 756.48 -114.235531 
L 756.48 -111.955742 
L 756.48 -109.675953 
L 756.48 -107.396164 
L 756.48 -105.116376 
L 756.48 -102.836587 
L 756.48 -100.556798 
L 756.48 -98.277009 
L 756.48 -95.99722 
L 756.48 -93.717432 
L 756.48 -91.437643 
L 756.48 -89.157854 
L 756.48 -86.878065 
L 756.48 -84.598276 
L 756.48 -82.318488 
L 756.48 -80.038699 
L 756.48 -77.75891 
L 756.48 -75.479121 
L 756.48 -73.199332 
L 756.48 -70.919544 
L 756.48 -68.639755 
L 756.48 -66.359966 
L 756.48 -64.080177 
L 756.48 -61.800388 
L 756.48 -59.5206 
L 756.48 -57.240811 
L 756.48 -54.961022 
L 756.48 -52.681233 
L 756.48 -50.401444 
L 756.48 -48.121656 
L 756.481931 -45.841867 
L 757.815362 -43.562078 
L 762.671082 -41.282289 
L 839.872 -39.0025 
z
" id="m993ac08abe" style="stroke:#3d3d3d;stroke-width:3;"/>
    </defs>
    <g clip-path="url(#p899c0c6792)">
     <use style="fill:#c03d3e;stroke:#3d3d3d;stroke-width:3;" x="0" xlink:href="#m993ac08abe" y="288"/>
    </g>
   </g>
   <g id="PolyCollection_5">
    <defs>
     <path d="M 972.361406 -38.595845 
L 957.558594 -38.595845 
L 881.568 -40.848183 
L 963.881465 -43.100521 
L 964.912076 -45.352858 
L 964.441688 -47.605196 
L 964.901104 -49.857534 
L 964.96 -52.109871 
L 964.96 -54.362209 
L 964.96 -56.614547 
L 964.96 -58.866884 
L 964.96 -61.119222 
L 964.96 -63.37156 
L 964.96 -65.623897 
L 964.96 -67.876235 
L 964.96 -70.128573 
L 964.96 -72.38091 
L 964.96 -74.633248 
L 964.96 -76.885586 
L 964.96 -79.137923 
L 964.96 -81.390261 
L 964.96 -83.642599 
L 964.96 -85.894936 
L 964.96 -88.147274 
L 964.96 -90.399612 
L 964.96 -92.651949 
L 964.96 -94.904287 
L 964.96 -97.156625 
L 964.96 -99.408962 
L 964.96 -101.6613 
L 964.96 -103.913638 
L 964.96 -106.165975 
L 964.96 -108.418313 
L 964.96 -110.670651 
L 964.96 -112.922988 
L 964.96 -115.175326 
L 964.96 -117.427664 
L 964.96 -119.680001 
L 964.96 -121.932339 
L 964.96 -124.184677 
L 964.96 -126.437014 
L 964.96 -128.689352 
L 964.96 -130.941689 
L 964.96 -133.194027 
L 964.96 -135.446365 
L 964.96 -137.698702 
L 964.96 -139.95104 
L 964.96 -142.203378 
L 964.96 -144.455715 
L 964.96 -146.708053 
L 964.96 -148.960391 
L 964.96 -151.212728 
L 964.96 -153.465066 
L 964.96 -155.717404 
L 964.96 -157.969741 
L 964.96 -160.222079 
L 964.96 -162.474417 
L 964.96 -164.726754 
L 964.96 -166.979092 
L 964.96 -169.23143 
L 964.96 -171.483767 
L 964.96 -173.736105 
L 964.96 -175.988443 
L 964.96 -178.24078 
L 964.96 -180.493118 
L 964.96 -182.745456 
L 964.96 -184.997793 
L 964.96 -187.250131 
L 964.96 -189.502469 
L 964.96 -191.754806 
L 964.944992 -194.007144 
L 964.95714 -196.259482 
L 964.96 -198.511819 
L 964.96 -200.764157 
L 964.96 -203.016495 
L 964.96 -205.268832 
L 964.957231 -207.52117 
L 964.959875 -209.773508 
L 964.945826 -212.025845 
L 964.951574 -214.278183 
L 964.958809 -216.530521 
L 964.959985 -218.782858 
L 964.96 -221.035196 
L 964.96 -223.287534 
L 964.96 -225.539871 
L 964.941755 -227.792209 
L 964.959992 -230.044547 
L 964.955019 -232.296884 
L 964.959992 -234.549222 
L 964.9582 -236.801559 
L 964.959809 -239.053897 
L 964.954823 -241.306235 
L 964.96 -243.558572 
L 964.96 -245.81091 
L 964.96 -248.063248 
L 964.96 -250.315585 
L 964.96 -252.567923 
L 964.952336 -254.820261 
L 964.96 -257.072598 
L 964.959994 -259.324936 
L 964.957965 -261.577274 
L 964.962035 -261.577274 
L 964.962035 -261.577274 
L 964.960006 -259.324936 
L 964.96 -257.072598 
L 964.967664 -254.820261 
L 964.96 -252.567923 
L 964.96 -250.315585 
L 964.96 -248.063248 
L 964.96 -245.81091 
L 964.96 -243.558572 
L 964.965177 -241.306235 
L 964.960191 -239.053897 
L 964.9618 -236.801559 
L 964.960008 -234.549222 
L 964.964981 -232.296884 
L 964.960008 -230.044547 
L 964.978245 -227.792209 
L 964.96 -225.539871 
L 964.96 -223.287534 
L 964.96 -221.035196 
L 964.960015 -218.782858 
L 964.961191 -216.530521 
L 964.968426 -214.278183 
L 964.974174 -212.025845 
L 964.960125 -209.773508 
L 964.962769 -207.52117 
L 964.96 -205.268832 
L 964.96 -203.016495 
L 964.96 -200.764157 
L 964.96 -198.511819 
L 964.96286 -196.259482 
L 964.975008 -194.007144 
L 964.96 -191.754806 
L 964.96 -189.502469 
L 964.96 -187.250131 
L 964.96 -184.997793 
L 964.96 -182.745456 
L 964.96 -180.493118 
L 964.96 -178.24078 
L 964.96 -175.988443 
L 964.96 -173.736105 
L 964.96 -171.483767 
L 964.96 -169.23143 
L 964.96 -166.979092 
L 964.96 -164.726754 
L 964.96 -162.474417 
L 964.96 -160.222079 
L 964.96 -157.969741 
L 964.96 -155.717404 
L 964.96 -153.465066 
L 964.96 -151.212728 
L 964.96 -148.960391 
L 964.96 -146.708053 
L 964.96 -144.455715 
L 964.96 -142.203378 
L 964.96 -139.95104 
L 964.96 -137.698702 
L 964.96 -135.446365 
L 964.96 -133.194027 
L 964.96 -130.941689 
L 964.96 -128.689352 
L 964.96 -126.437014 
L 964.96 -124.184677 
L 964.96 -121.932339 
L 964.96 -119.680001 
L 964.96 -117.427664 
L 964.96 -115.175326 
L 964.96 -112.922988 
L 964.96 -110.670651 
L 964.96 -108.418313 
L 964.96 -106.165975 
L 964.96 -103.913638 
L 964.96 -101.6613 
L 964.96 -99.408962 
L 964.96 -97.156625 
L 964.96 -94.904287 
L 964.96 -92.651949 
L 964.96 -90.399612 
L 964.96 -88.147274 
L 964.96 -85.894936 
L 964.96 -83.642599 
L 964.96 -81.390261 
L 964.96 -79.137923 
L 964.96 -76.885586 
L 964.96 -74.633248 
L 964.96 -72.38091 
L 964.96 -70.128573 
L 964.96 -67.876235 
L 964.96 -65.623897 
L 964.96 -63.37156 
L 964.96 -61.119222 
L 964.96 -58.866884 
L 964.96 -56.614547 
L 964.96 -54.362209 
L 964.96 -52.109871 
L 965.018896 -49.857534 
L 965.478312 -47.605196 
L 965.007924 -45.352858 
L 966.038535 -43.100521 
L 1048.352 -40.848183 
L 972.361406 -38.595845 
z
" id="m1a31963331" style="stroke:#3d3d3d;stroke-width:3;"/>
    </defs>
    <g clip-path="url(#p899c0c6792)">
     <use style="fill:#9372b2;stroke:#3d3d3d;stroke-width:3;" x="0" xlink:href="#m1a31963331" y="288"/>
    </g>
   </g>
   <g id="matplotlib.axis_1">
    <g id="xtick_1">
     <g id="line2d_1">
      <defs>
       <path d="M 0 0 
L 0 3.5 
" id="mf7383cda09" style="stroke:#58544f;stroke-width:0.8;"/>
      </defs>
      <g>
       <use style="fill:#58544f;stroke:#58544f;stroke-width:0.8;" x="131.04" xlink:href="#mf7383cda09" y="262.621875"/>
      </g>
     </g>
     <g id="text_1">
      <!-- Petrol_Consumption_By_Sector(toe) -->
      <defs>
       <path d="M 19.578125 26.421875 
L 19.578125 0 
L 7.234375 0 
L 7.234375 71.09375 
L 34.421875 71.09375 
Q 46.34375 71.09375 53.34375 64.890625 
Q 60.359375 58.6875 60.359375 48.484375 
Q 60.359375 38.03125 53.484375 32.21875 
Q 46.625 26.421875 34.28125 26.421875 
z
M 19.578125 36.328125 
L 34.421875 36.328125 
Q 41.015625 36.328125 44.484375 39.421875 
Q 47.953125 42.53125 47.953125 48.390625 
Q 47.953125 54.15625 44.4375 57.59375 
Q 40.921875 61.03125 34.765625 61.140625 
L 19.578125 61.140625 
z
" id="Roboto-Medium-80"/>
       <path d="M 29.34375 -0.984375 
Q 18.0625 -0.984375 11.046875 6.125 
Q 4.046875 13.234375 4.046875 25.046875 
L 4.046875 26.515625 
Q 4.046875 34.421875 7.09375 40.640625 
Q 10.15625 46.875 15.671875 50.34375 
Q 21.1875 53.8125 27.984375 53.8125 
Q 38.765625 53.8125 44.640625 46.921875 
Q 50.53125 40.046875 50.53125 27.4375 
L 50.53125 22.65625 
L 16.015625 22.65625 
Q 16.546875 16.109375 20.375 12.296875 
Q 24.21875 8.5 30.03125 8.5 
Q 38.1875 8.5 43.3125 15.09375 
L 49.703125 8.984375 
Q 46.53125 4.25 41.234375 1.625 
Q 35.9375 -0.984375 29.34375 -0.984375 
z
M 27.9375 44.28125 
Q 23.046875 44.28125 20.046875 40.859375 
Q 17.046875 37.453125 16.21875 31.34375 
L 38.8125 31.34375 
L 38.8125 32.234375 
Q 38.421875 38.1875 35.640625 41.234375 
Q 32.859375 44.28125 27.9375 44.28125 
z
" id="Roboto-Medium-101"/>
       <path d="M 20.953125 65.671875 
L 20.953125 52.828125 
L 30.28125 52.828125 
L 30.28125 44.046875 
L 20.953125 44.046875 
L 20.953125 14.546875 
Q 20.953125 11.53125 22.140625 10.1875 
Q 23.34375 8.84375 26.421875 8.84375 
Q 28.46875 8.84375 30.5625 9.328125 
L 30.5625 0.140625 
Q 26.515625 -0.984375 22.75 -0.984375 
Q 9.078125 -0.984375 9.078125 14.109375 
L 9.078125 44.046875 
L 0.390625 44.046875 
L 0.390625 52.828125 
L 9.078125 52.828125 
L 9.078125 65.671875 
z
" id="Roboto-Medium-116"/>
       <path d="M 33.734375 42 
Q 31.390625 42.390625 28.90625 42.390625 
Q 20.75 42.390625 17.921875 36.140625 
L 17.921875 0 
L 6.0625 0 
L 6.0625 52.828125 
L 17.390625 52.828125 
L 17.671875 46.921875 
Q 21.96875 53.8125 29.59375 53.8125 
Q 32.125 53.8125 33.796875 53.125 
z
" id="Roboto-Medium-114"/>
       <path d="M 3.859375 26.90625 
Q 3.859375 34.671875 6.9375 40.890625 
Q 10.015625 47.125 15.578125 50.46875 
Q 21.140625 53.8125 28.375 53.8125 
Q 39.0625 53.8125 45.71875 46.921875 
Q 52.390625 40.046875 52.9375 28.65625 
L 52.984375 25.875 
Q 52.984375 18.0625 49.96875 11.90625 
Q 46.96875 5.765625 41.375 2.390625 
Q 35.796875 -0.984375 28.46875 -0.984375 
Q 17.28125 -0.984375 10.5625 6.46875 
Q 3.859375 13.921875 3.859375 26.3125 
z
M 15.71875 25.875 
Q 15.71875 17.71875 19.09375 13.109375 
Q 22.46875 8.5 28.46875 8.5 
Q 34.46875 8.5 37.8125 13.1875 
Q 41.15625 17.875 41.15625 26.90625 
Q 41.15625 34.90625 37.71875 39.59375 
Q 34.28125 44.28125 28.375 44.28125 
Q 22.5625 44.28125 19.140625 39.671875 
Q 15.71875 35.0625 15.71875 25.875 
z
" id="Roboto-Medium-111"/>
       <path d="M 18.703125 0 
L 6.84375 0 
L 6.84375 75 
L 18.703125 75 
z
" id="Roboto-Medium-108"/>
       <path d="M 44.921875 -9.328125 
L 0.140625 -9.328125 
L 0.140625 0 
L 44.921875 0 
z
" id="Roboto-Medium-95"/>
       <path d="M 61.46875 23.140625 
Q 60.40625 11.765625 53.078125 5.390625 
Q 45.75 -0.984375 33.59375 -0.984375 
Q 25.09375 -0.984375 18.625 3.046875 
Q 12.15625 7.078125 8.640625 14.5 
Q 5.125 21.921875 4.984375 31.734375 
L 4.984375 38.375 
Q 4.984375 48.4375 8.546875 56.09375 
Q 12.109375 63.765625 18.765625 67.921875 
Q 25.4375 72.078125 34.1875 72.078125 
Q 45.953125 72.078125 53.125 65.671875 
Q 60.296875 59.28125 61.46875 47.609375 
L 49.171875 47.609375 
Q 48.296875 55.28125 44.703125 58.671875 
Q 41.109375 62.0625 34.1875 62.0625 
Q 26.125 62.0625 21.796875 56.171875 
Q 17.484375 50.296875 17.390625 38.921875 
L 17.390625 32.625 
Q 17.390625 21.09375 21.515625 15.03125 
Q 25.640625 8.984375 33.59375 8.984375 
Q 40.875 8.984375 44.53125 12.25 
Q 48.1875 15.53125 49.171875 23.140625 
z
" id="Roboto-Medium-67"/>
       <path d="M 17.09375 52.828125 
L 17.4375 46.734375 
Q 23.296875 53.8125 32.8125 53.8125 
Q 49.3125 53.8125 49.609375 34.90625 
L 49.609375 0 
L 37.75 0 
L 37.75 34.234375 
Q 37.75 39.265625 35.578125 41.671875 
Q 33.40625 44.09375 28.46875 44.09375 
Q 21.296875 44.09375 17.78125 37.59375 
L 17.78125 0 
L 5.90625 0 
L 5.90625 52.828125 
z
" id="Roboto-Medium-110"/>
       <path d="M 35.6875 14.359375 
Q 35.6875 17.53125 33.078125 19.1875 
Q 30.46875 20.84375 24.40625 22.109375 
Q 18.359375 23.390625 14.3125 25.34375 
Q 5.421875 29.640625 5.421875 37.796875 
Q 5.421875 44.625 11.171875 49.21875 
Q 16.9375 53.8125 25.828125 53.8125 
Q 35.296875 53.8125 41.125 49.125 
Q 46.96875 44.4375 46.96875 36.96875 
L 35.109375 36.96875 
Q 35.109375 40.375 32.5625 42.640625 
Q 30.03125 44.921875 25.828125 44.921875 
Q 21.921875 44.921875 19.453125 43.109375 
Q 17 41.3125 17 38.28125 
Q 17 35.546875 19.28125 34.03125 
Q 21.578125 32.515625 28.5625 30.96875 
Q 35.546875 29.4375 39.515625 27.3125 
Q 43.5 25.203125 45.421875 22.21875 
Q 47.359375 19.234375 47.359375 14.984375 
Q 47.359375 7.859375 41.453125 3.4375 
Q 35.546875 -0.984375 25.984375 -0.984375 
Q 19.484375 -0.984375 14.40625 1.359375 
Q 9.328125 3.71875 6.484375 7.8125 
Q 3.65625 11.921875 3.65625 16.65625 
L 15.1875 16.65625 
Q 15.4375 12.453125 18.359375 10.171875 
Q 21.296875 7.90625 26.125 7.90625 
Q 30.8125 7.90625 33.25 9.6875 
Q 35.6875 11.46875 35.6875 14.359375 
z
" id="Roboto-Medium-115"/>
       <path d="M 38.09375 5.171875 
Q 32.859375 -0.984375 23.25 -0.984375 
Q 14.65625 -0.984375 10.234375 4.046875 
Q 5.8125 9.078125 5.8125 18.609375 
L 5.8125 52.828125 
L 17.671875 52.828125 
L 17.671875 18.75 
Q 17.671875 8.6875 26.03125 8.6875 
Q 34.671875 8.6875 37.703125 14.890625 
L 37.703125 52.828125 
L 49.5625 52.828125 
L 49.5625 0 
L 38.375 0 
z
" id="Roboto-Medium-117"/>
       <path d="M 17.234375 52.828125 
L 17.578125 47.3125 
Q 23.140625 53.8125 32.8125 53.8125 
Q 43.40625 53.8125 47.3125 45.703125 
Q 53.078125 53.8125 63.53125 53.8125 
Q 72.265625 53.8125 76.53125 48.96875 
Q 80.8125 44.140625 80.90625 34.71875 
L 80.90625 0 
L 69.046875 0 
L 69.046875 34.375 
Q 69.046875 39.40625 66.84375 41.75 
Q 64.65625 44.09375 59.578125 44.09375 
Q 55.515625 44.09375 52.953125 41.921875 
Q 50.390625 39.75 49.359375 36.234375 
L 49.421875 0 
L 37.546875 0 
L 37.546875 34.765625 
Q 37.3125 44.09375 28.03125 44.09375 
Q 20.90625 44.09375 17.921875 38.28125 
L 17.921875 0 
L 6.0625 0 
L 6.0625 52.828125 
z
" id="Roboto-Medium-109"/>
       <path d="M 52.34375 25.875 
Q 52.34375 13.625 46.78125 6.3125 
Q 41.21875 -0.984375 31.84375 -0.984375 
Q 23.140625 -0.984375 17.921875 4.734375 
L 17.921875 -20.3125 
L 6.0625 -20.3125 
L 6.0625 52.828125 
L 17 52.828125 
L 17.484375 47.46875 
Q 22.703125 53.8125 31.6875 53.8125 
Q 41.359375 53.8125 46.84375 46.609375 
Q 52.34375 39.40625 52.34375 26.609375 
z
M 40.53125 26.90625 
Q 40.53125 34.8125 37.375 39.453125 
Q 34.234375 44.09375 28.375 44.09375 
Q 21.09375 44.09375 17.921875 38.09375 
L 17.921875 14.65625 
Q 21.140625 8.5 28.46875 8.5 
Q 34.125 8.5 37.328125 13.0625 
Q 40.53125 17.625 40.53125 26.90625 
z
" id="Roboto-Medium-112"/>
       <path d="M 18.703125 0 
L 6.84375 0 
L 6.84375 52.828125 
L 18.703125 52.828125 
z
M 6.109375 66.546875 
Q 6.109375 69.28125 7.84375 71.09375 
Q 9.578125 72.90625 12.796875 72.90625 
Q 16.015625 72.90625 17.765625 71.09375 
Q 19.53125 69.28125 19.53125 66.546875 
Q 19.53125 63.875 17.765625 62.078125 
Q 16.015625 60.296875 12.796875 60.296875 
Q 9.578125 60.296875 7.84375 62.078125 
Q 6.109375 63.875 6.109375 66.546875 
z
" id="Roboto-Medium-105"/>
       <path d="M 7.234375 0 
L 7.234375 71.09375 
L 31.59375 71.09375 
Q 43.65625 71.09375 49.953125 66.25 
Q 56.25 61.421875 56.25 51.859375 
Q 56.25 46.96875 53.609375 43.0625 
Q 50.984375 39.15625 45.90625 37.015625 
Q 51.65625 35.453125 54.796875 31.125 
Q 57.953125 26.8125 57.953125 20.75 
Q 57.953125 10.75 51.53125 5.375 
Q 45.125 0 33.15625 0 
z
M 19.578125 32.078125 
L 19.578125 9.859375 
L 33.296875 9.859375 
Q 39.109375 9.859375 42.375 12.734375 
Q 45.65625 15.625 45.65625 20.75 
Q 45.65625 31.84375 34.328125 32.078125 
z
M 19.578125 41.15625 
L 31.6875 41.15625 
Q 37.453125 41.15625 40.703125 43.765625 
Q 43.953125 46.390625 43.953125 51.171875 
Q 43.953125 56.453125 40.9375 58.796875 
Q 37.9375 61.140625 31.59375 61.140625 
L 19.578125 61.140625 
z
" id="Roboto-Medium-66"/>
       <path d="M 24.5625 17 
L 35.296875 52.828125 
L 47.953125 52.828125 
L 26.953125 -8.015625 
Q 22.125 -21.34375 10.546875 -21.34375 
Q 7.953125 -21.34375 4.828125 -20.453125 
L 4.828125 -11.28125 
L 7.078125 -11.421875 
Q 11.578125 -11.421875 13.84375 -9.78125 
Q 16.109375 -8.15625 17.4375 -4.296875 
L 19.140625 0.25 
L 0.59375 52.828125 
L 13.375 52.828125 
z
" id="Roboto-Medium-121"/>
       <path d="M 44.390625 18.3125 
Q 44.390625 23 41.09375 25.53125 
Q 37.796875 28.078125 29.203125 30.65625 
Q 20.609375 33.25 15.53125 36.421875 
Q 5.8125 42.53125 5.8125 52.34375 
Q 5.8125 60.9375 12.8125 66.5 
Q 19.828125 72.078125 31 72.078125 
Q 38.421875 72.078125 44.234375 69.34375 
Q 50.046875 66.609375 53.359375 61.546875 
Q 56.6875 56.5 56.6875 50.34375 
L 44.390625 50.34375 
Q 44.390625 55.90625 40.890625 59.046875 
Q 37.40625 62.203125 30.90625 62.203125 
Q 24.859375 62.203125 21.515625 59.609375 
Q 18.171875 57.03125 18.171875 52.390625 
Q 18.171875 48.484375 21.78125 45.875 
Q 25.390625 43.265625 33.6875 40.796875 
Q 42 38.328125 47.015625 35.171875 
Q 52.046875 32.03125 54.390625 27.953125 
Q 56.734375 23.875 56.734375 18.40625 
Q 56.734375 9.515625 49.921875 4.265625 
Q 43.109375 -0.984375 31.453125 -0.984375 
Q 23.734375 -0.984375 17.265625 1.875 
Q 10.796875 4.734375 7.203125 9.765625 
Q 3.609375 14.796875 3.609375 21.484375 
L 15.96875 21.484375 
Q 15.96875 15.4375 19.96875 12.109375 
Q 23.96875 8.796875 31.453125 8.796875 
Q 37.890625 8.796875 41.140625 11.40625 
Q 44.390625 14.015625 44.390625 18.3125 
z
" id="Roboto-Medium-83"/>
       <path d="M 27.78125 8.5 
Q 32.234375 8.5 35.15625 11.078125 
Q 38.09375 13.671875 38.28125 17.484375 
L 49.46875 17.484375 
Q 49.265625 12.546875 46.375 8.265625 
Q 43.5 4 38.5625 1.5 
Q 33.640625 -0.984375 27.9375 -0.984375 
Q 16.84375 -0.984375 10.34375 6.1875 
Q 3.859375 13.375 3.859375 26.03125 
L 3.859375 27.25 
Q 3.859375 39.3125 10.296875 46.5625 
Q 16.75 53.8125 27.875 53.8125 
Q 37.3125 53.8125 43.234375 48.3125 
Q 49.171875 42.828125 49.46875 33.890625 
L 38.28125 33.890625 
Q 38.09375 38.421875 35.1875 41.34375 
Q 32.28125 44.28125 27.78125 44.28125 
Q 22.015625 44.28125 18.890625 40.109375 
Q 15.765625 35.9375 15.71875 27.4375 
L 15.71875 25.53125 
Q 15.71875 16.9375 18.8125 12.71875 
Q 21.921875 8.5 27.78125 8.5 
z
" id="Roboto-Medium-99"/>
       <path d="M 6.25 28.90625 
Q 6.25 40.1875 9.28125 50.3125 
Q 12.3125 60.453125 18.171875 68.4375 
Q 24.03125 76.421875 30.5625 79.640625 
L 32.90625 72.703125 
Q 26.03125 67.484375 21.75 56.765625 
Q 17.484375 46.046875 17.09375 32.234375 
L 17.046875 28.03125 
Q 17.046875 13.234375 21.21875 1.625 
Q 25.390625 -9.96875 32.90625 -16.015625 
L 30.5625 -22.609375 
Q 24.03125 -19.390625 18.140625 -11.359375 
Q 12.25 -3.328125 9.25 6.75 
Q 6.25 16.84375 6.25 28.90625 
z
" id="Roboto-Medium-40"/>
       <path d="M 28.953125 28.125 
Q 28.953125 17.28125 25.96875 7.203125 
Q 23 -2.875 16.9375 -11.15625 
Q 10.890625 -19.4375 4.296875 -22.609375 
L 1.953125 -16.015625 
Q 9.28125 -10.359375 13.546875 1.28125 
Q 17.828125 12.9375 17.828125 27.875 
L 17.828125 29 
Q 17.828125 42.578125 14.109375 53.734375 
Q 10.40625 64.890625 3.46875 71.625 
L 1.953125 73 
L 4.296875 79.640625 
Q 10.546875 76.609375 16.40625 68.890625 
Q 22.265625 61.1875 25.390625 51.640625 
Q 28.515625 42.09375 28.90625 31.9375 
z
" id="Roboto-Medium-41"/>
      </defs>
      <g style="fill:#58544f;" transform="translate(66.20375 275.993125)scale(0.08 -0.08)">
       <use xlink:href="#Roboto-Medium-80"/>
       <use x="63.916016" xlink:href="#Roboto-Medium-101"/>
       <use x="117.578125" xlink:href="#Roboto-Medium-116"/>
       <use x="150.830078" xlink:href="#Roboto-Medium-114"/>
       <use x="185.986328" xlink:href="#Roboto-Medium-111"/>
       <use x="242.919922" xlink:href="#Roboto-Medium-108"/>
       <use x="268.457031" xlink:href="#Roboto-Medium-95"/>
       <use x="313.574219" xlink:href="#Roboto-Medium-67"/>
       <use x="378.857422" xlink:href="#Roboto-Medium-111"/>
       <use x="435.791016" xlink:href="#Roboto-Medium-110"/>
       <use x="491.40625" xlink:href="#Roboto-Medium-115"/>
       <use x="543.017578" xlink:href="#Roboto-Medium-117"/>
       <use x="598.583984" xlink:href="#Roboto-Medium-109"/>
       <use x="685.595703" xlink:href="#Roboto-Medium-112"/>
       <use x="741.894531" xlink:href="#Roboto-Medium-116"/>
       <use x="775.146484" xlink:href="#Roboto-Medium-105"/>
       <use x="800.683594" xlink:href="#Roboto-Medium-111"/>
       <use x="857.617188" xlink:href="#Roboto-Medium-110"/>
       <use x="913.232422" xlink:href="#Roboto-Medium-95"/>
       <use x="958.349609" xlink:href="#Roboto-Medium-66"/>
       <use x="1021.435547" xlink:href="#Roboto-Medium-121"/>
       <use x="1070.117188" xlink:href="#Roboto-Medium-95"/>
       <use x="1115.234375" xlink:href="#Roboto-Medium-83"/>
       <use x="1175.585938" xlink:href="#Roboto-Medium-101"/>
       <use x="1229.248047" xlink:href="#Roboto-Medium-99"/>
       <use x="1281.591797" xlink:href="#Roboto-Medium-116"/>
       <use x="1314.84375" xlink:href="#Roboto-Medium-111"/>
       <use x="1371.777344" xlink:href="#Roboto-Medium-114"/>
       <use x="1406.933594" xlink:href="#Roboto-Medium-40"/>
       <use x="1441.796875" xlink:href="#Roboto-Medium-116"/>
       <use x="1475.048828" xlink:href="#Roboto-Medium-111"/>
       <use x="1531.982422" xlink:href="#Roboto-Medium-101"/>
       <use x="1585.644531" xlink:href="#Roboto-Medium-41"/>
      </g>
     </g>
    </g>
    <g id="xtick_2">
     <g id="line2d_2">
      <g>
       <use style="fill:#58544f;stroke:#58544f;stroke-width:0.8;" x="339.52" xlink:href="#mf7383cda09" y="262.621875"/>
      </g>
     </g>
     <g id="text_2">
      <!-- NG_Consumption_By_Sector(toe) -->
      <defs>
       <path d="M 63.625 0 
L 51.265625 0 
L 19.578125 50.4375 
L 19.578125 0 
L 7.234375 0 
L 7.234375 71.09375 
L 19.578125 71.09375 
L 51.375 20.453125 
L 51.375 71.09375 
L 63.625 71.09375 
z
" id="Roboto-Medium-78"/>
       <path d="M 61.71875 9.234375 
Q 57.859375 4.203125 51.015625 1.609375 
Q 44.1875 -0.984375 35.5 -0.984375 
Q 26.5625 -0.984375 19.671875 3.0625 
Q 12.796875 7.125 9.0625 14.671875 
Q 5.328125 22.21875 5.171875 32.28125 
L 5.171875 37.84375 
Q 5.171875 53.953125 12.890625 63.015625 
Q 20.609375 72.078125 34.421875 72.078125 
Q 46.296875 72.078125 53.265625 66.21875 
Q 60.25 60.359375 61.671875 49.3125 
L 49.5625 49.3125 
Q 47.515625 62.15625 34.671875 62.15625 
Q 26.375 62.15625 22.046875 56.171875 
Q 17.71875 50.203125 17.578125 38.625 
L 17.578125 33.15625 
Q 17.578125 21.625 22.4375 15.25 
Q 27.296875 8.890625 35.9375 8.890625 
Q 45.40625 8.890625 49.421875 13.1875 
L 49.421875 27.09375 
L 34.765625 27.09375 
L 34.765625 36.46875 
L 61.71875 36.46875 
z
" id="Roboto-Medium-71"/>
      </defs>
      <g style="fill:#58544f;" transform="translate(279.859375 275.993125)scale(0.08 -0.08)">
       <use xlink:href="#Roboto-Medium-78"/>
       <use x="70.996094" xlink:href="#Roboto-Medium-71"/>
       <use x="139.0625" xlink:href="#Roboto-Medium-95"/>
       <use x="184.179688" xlink:href="#Roboto-Medium-67"/>
       <use x="249.462891" xlink:href="#Roboto-Medium-111"/>
       <use x="306.396484" xlink:href="#Roboto-Medium-110"/>
       <use x="362.011719" xlink:href="#Roboto-Medium-115"/>
       <use x="413.623047" xlink:href="#Roboto-Medium-117"/>
       <use x="469.189453" xlink:href="#Roboto-Medium-109"/>
       <use x="556.201172" xlink:href="#Roboto-Medium-112"/>
       <use x="612.5" xlink:href="#Roboto-Medium-116"/>
       <use x="645.751953" xlink:href="#Roboto-Medium-105"/>
       <use x="671.289062" xlink:href="#Roboto-Medium-111"/>
       <use x="728.222656" xlink:href="#Roboto-Medium-110"/>
       <use x="783.837891" xlink:href="#Roboto-Medium-95"/>
       <use x="828.955078" xlink:href="#Roboto-Medium-66"/>
       <use x="892.041016" xlink:href="#Roboto-Medium-121"/>
       <use x="940.722656" xlink:href="#Roboto-Medium-95"/>
       <use x="985.839844" xlink:href="#Roboto-Medium-83"/>
       <use x="1046.191406" xlink:href="#Roboto-Medium-101"/>
       <use x="1099.853516" xlink:href="#Roboto-Medium-99"/>
       <use x="1152.197266" xlink:href="#Roboto-Medium-116"/>
       <use x="1185.449219" xlink:href="#Roboto-Medium-111"/>
       <use x="1242.382812" xlink:href="#Roboto-Medium-114"/>
       <use x="1277.539062" xlink:href="#Roboto-Medium-40"/>
       <use x="1312.402344" xlink:href="#Roboto-Medium-116"/>
       <use x="1345.654297" xlink:href="#Roboto-Medium-111"/>
       <use x="1402.587891" xlink:href="#Roboto-Medium-101"/>
       <use x="1456.25" xlink:href="#Roboto-Medium-41"/>
      </g>
     </g>
    </g>
    <g id="xtick_3">
     <g id="line2d_3">
      <g>
       <use style="fill:#58544f;stroke:#58544f;stroke-width:0.8;" x="548" xlink:href="#mf7383cda09" y="262.621875"/>
      </g>
     </g>
     <g id="text_3">
      <!-- Coal_Consumption_By_Sector(toe) -->
      <defs>
       <path d="M 37.640625 0 
Q 36.859375 1.515625 36.28125 4.9375 
Q 30.609375 -0.984375 22.40625 -0.984375 
Q 14.453125 -0.984375 9.421875 3.5625 
Q 4.390625 8.109375 4.390625 14.796875 
Q 4.390625 23.25 10.65625 27.765625 
Q 16.9375 32.28125 28.609375 32.28125 
L 35.890625 32.28125 
L 35.890625 35.75 
Q 35.890625 39.84375 33.59375 42.3125 
Q 31.296875 44.78125 26.609375 44.78125 
Q 22.5625 44.78125 19.96875 42.75 
Q 17.390625 40.71875 17.390625 37.59375 
L 5.515625 37.59375 
Q 5.515625 41.9375 8.390625 45.71875 
Q 11.28125 49.515625 16.234375 51.65625 
Q 21.1875 53.8125 27.296875 53.8125 
Q 36.578125 53.8125 42.09375 49.140625 
Q 47.609375 44.484375 47.75 36.03125 
L 47.75 12.203125 
Q 47.75 5.078125 49.75 0.828125 
L 49.75 0 
z
M 24.609375 8.546875 
Q 28.125 8.546875 31.21875 10.25 
Q 34.328125 11.96875 35.890625 14.84375 
L 35.890625 24.8125 
L 29.5 24.8125 
Q 22.90625 24.8125 19.578125 22.515625 
Q 16.265625 20.21875 16.265625 16.015625 
Q 16.265625 12.59375 18.53125 10.5625 
Q 20.796875 8.546875 24.609375 8.546875 
z
" id="Roboto-Medium-97"/>
      </defs>
      <g style="fill:#58544f;" transform="translate(485.8275 275.993125)scale(0.08 -0.08)">
       <use xlink:href="#Roboto-Medium-67"/>
       <use x="65.283203" xlink:href="#Roboto-Medium-111"/>
       <use x="122.216797" xlink:href="#Roboto-Medium-97"/>
       <use x="176.318359" xlink:href="#Roboto-Medium-108"/>
       <use x="201.855469" xlink:href="#Roboto-Medium-95"/>
       <use x="246.972656" xlink:href="#Roboto-Medium-67"/>
       <use x="312.255859" xlink:href="#Roboto-Medium-111"/>
       <use x="369.189453" xlink:href="#Roboto-Medium-110"/>
       <use x="424.804688" xlink:href="#Roboto-Medium-115"/>
       <use x="476.416016" xlink:href="#Roboto-Medium-117"/>
       <use x="531.982422" xlink:href="#Roboto-Medium-109"/>
       <use x="618.994141" xlink:href="#Roboto-Medium-112"/>
       <use x="675.292969" xlink:href="#Roboto-Medium-116"/>
       <use x="708.544922" xlink:href="#Roboto-Medium-105"/>
       <use x="734.082031" xlink:href="#Roboto-Medium-111"/>
       <use x="791.015625" xlink:href="#Roboto-Medium-110"/>
       <use x="846.630859" xlink:href="#Roboto-Medium-95"/>
       <use x="891.748047" xlink:href="#Roboto-Medium-66"/>
       <use x="954.833984" xlink:href="#Roboto-Medium-121"/>
       <use x="1003.515625" xlink:href="#Roboto-Medium-95"/>
       <use x="1048.632812" xlink:href="#Roboto-Medium-83"/>
       <use x="1108.984375" xlink:href="#Roboto-Medium-101"/>
       <use x="1162.646484" xlink:href="#Roboto-Medium-99"/>
       <use x="1214.990234" xlink:href="#Roboto-Medium-116"/>
       <use x="1248.242188" xlink:href="#Roboto-Medium-111"/>
       <use x="1305.175781" xlink:href="#Roboto-Medium-114"/>
       <use x="1340.332031" xlink:href="#Roboto-Medium-40"/>
       <use x="1375.195312" xlink:href="#Roboto-Medium-116"/>
       <use x="1408.447266" xlink:href="#Roboto-Medium-111"/>
       <use x="1465.380859" xlink:href="#Roboto-Medium-101"/>
       <use x="1519.042969" xlink:href="#Roboto-Medium-41"/>
      </g>
     </g>
    </g>
    <g id="xtick_4">
     <g id="line2d_4">
      <g>
       <use style="fill:#58544f;stroke:#58544f;stroke-width:0.8;" x="756.48" xlink:href="#mf7383cda09" y="262.621875"/>
      </g>
     </g>
     <g id="text_4">
      <!-- Electricity_Consumption_By_Structure(toe) -->
      <defs>
       <path d="M 48.78125 31.734375 
L 19.578125 31.734375 
L 19.578125 9.859375 
L 53.71875 9.859375 
L 53.71875 0 
L 7.234375 0 
L 7.234375 71.09375 
L 53.375 71.09375 
L 53.375 61.140625 
L 19.578125 61.140625 
L 19.578125 41.5 
L 48.78125 41.5 
z
" id="Roboto-Medium-69"/>
      </defs>
      <g style="fill:#58544f;" transform="translate(679.805 275.993125)scale(0.08 -0.08)">
       <use xlink:href="#Roboto-Medium-69"/>
       <use x="56.542969" xlink:href="#Roboto-Medium-108"/>
       <use x="82.080078" xlink:href="#Roboto-Medium-101"/>
       <use x="135.742188" xlink:href="#Roboto-Medium-99"/>
       <use x="188.085938" xlink:href="#Roboto-Medium-116"/>
       <use x="221.337891" xlink:href="#Roboto-Medium-114"/>
       <use x="256.494141" xlink:href="#Roboto-Medium-105"/>
       <use x="282.03125" xlink:href="#Roboto-Medium-99"/>
       <use x="334.375" xlink:href="#Roboto-Medium-105"/>
       <use x="359.912109" xlink:href="#Roboto-Medium-116"/>
       <use x="393.164062" xlink:href="#Roboto-Medium-121"/>
       <use x="441.845703" xlink:href="#Roboto-Medium-95"/>
       <use x="486.962891" xlink:href="#Roboto-Medium-67"/>
       <use x="552.246094" xlink:href="#Roboto-Medium-111"/>
       <use x="609.179688" xlink:href="#Roboto-Medium-110"/>
       <use x="664.794922" xlink:href="#Roboto-Medium-115"/>
       <use x="716.40625" xlink:href="#Roboto-Medium-117"/>
       <use x="771.972656" xlink:href="#Roboto-Medium-109"/>
       <use x="858.984375" xlink:href="#Roboto-Medium-112"/>
       <use x="915.283203" xlink:href="#Roboto-Medium-116"/>
       <use x="948.535156" xlink:href="#Roboto-Medium-105"/>
       <use x="974.072266" xlink:href="#Roboto-Medium-111"/>
       <use x="1031.005859" xlink:href="#Roboto-Medium-110"/>
       <use x="1086.621094" xlink:href="#Roboto-Medium-95"/>
       <use x="1131.738281" xlink:href="#Roboto-Medium-66"/>
       <use x="1194.824219" xlink:href="#Roboto-Medium-121"/>
       <use x="1243.505859" xlink:href="#Roboto-Medium-95"/>
       <use x="1288.623047" xlink:href="#Roboto-Medium-83"/>
       <use x="1348.974609" xlink:href="#Roboto-Medium-116"/>
       <use x="1382.226562" xlink:href="#Roboto-Medium-114"/>
       <use x="1417.382812" xlink:href="#Roboto-Medium-117"/>
       <use x="1472.949219" xlink:href="#Roboto-Medium-99"/>
       <use x="1525.292969" xlink:href="#Roboto-Medium-116"/>
       <use x="1558.544922" xlink:href="#Roboto-Medium-117"/>
       <use x="1614.111328" xlink:href="#Roboto-Medium-114"/>
       <use x="1649.267578" xlink:href="#Roboto-Medium-101"/>
       <use x="1702.929688" xlink:href="#Roboto-Medium-40"/>
       <use x="1737.792969" xlink:href="#Roboto-Medium-116"/>
       <use x="1771.044922" xlink:href="#Roboto-Medium-111"/>
       <use x="1827.978516" xlink:href="#Roboto-Medium-101"/>
       <use x="1881.640625" xlink:href="#Roboto-Medium-41"/>
      </g>
     </g>
    </g>
    <g id="xtick_5">
     <g id="line2d_5">
      <g>
       <use style="fill:#58544f;stroke:#58544f;stroke-width:0.8;" x="964.96" xlink:href="#mf7383cda09" y="262.621875"/>
      </g>
     </g>
     <g id="text_5">
      <!-- Gas_Consumption_By_Structure(toe) -->
      <g style="fill:#58544f;" transform="translate(899.006875 275.993125)scale(0.08 -0.08)">
       <use xlink:href="#Roboto-Medium-71"/>
       <use x="68.066406" xlink:href="#Roboto-Medium-97"/>
       <use x="122.167969" xlink:href="#Roboto-Medium-115"/>
       <use x="173.779297" xlink:href="#Roboto-Medium-95"/>
       <use x="218.896484" xlink:href="#Roboto-Medium-67"/>
       <use x="284.179688" xlink:href="#Roboto-Medium-111"/>
       <use x="341.113281" xlink:href="#Roboto-Medium-110"/>
       <use x="396.728516" xlink:href="#Roboto-Medium-115"/>
       <use x="448.339844" xlink:href="#Roboto-Medium-117"/>
       <use x="503.90625" xlink:href="#Roboto-Medium-109"/>
       <use x="590.917969" xlink:href="#Roboto-Medium-112"/>
       <use x="647.216797" xlink:href="#Roboto-Medium-116"/>
       <use x="680.46875" xlink:href="#Roboto-Medium-105"/>
       <use x="706.005859" xlink:href="#Roboto-Medium-111"/>
       <use x="762.939453" xlink:href="#Roboto-Medium-110"/>
       <use x="818.554688" xlink:href="#Roboto-Medium-95"/>
       <use x="863.671875" xlink:href="#Roboto-Medium-66"/>
       <use x="926.757812" xlink:href="#Roboto-Medium-121"/>
       <use x="975.439453" xlink:href="#Roboto-Medium-95"/>
       <use x="1020.556641" xlink:href="#Roboto-Medium-83"/>
       <use x="1080.908203" xlink:href="#Roboto-Medium-116"/>
       <use x="1114.160156" xlink:href="#Roboto-Medium-114"/>
       <use x="1149.316406" xlink:href="#Roboto-Medium-117"/>
       <use x="1204.882812" xlink:href="#Roboto-Medium-99"/>
       <use x="1257.226562" xlink:href="#Roboto-Medium-116"/>
       <use x="1290.478516" xlink:href="#Roboto-Medium-117"/>
       <use x="1346.044922" xlink:href="#Roboto-Medium-114"/>
       <use x="1381.201172" xlink:href="#Roboto-Medium-101"/>
       <use x="1434.863281" xlink:href="#Roboto-Medium-40"/>
       <use x="1469.726562" xlink:href="#Roboto-Medium-116"/>
       <use x="1502.978516" xlink:href="#Roboto-Medium-111"/>
       <use x="1559.912109" xlink:href="#Roboto-Medium-101"/>
       <use x="1613.574219" xlink:href="#Roboto-Medium-41"/>
      </g>
     </g>
    </g>
   </g>
   <g id="matplotlib.axis_2">
    <g id="ytick_1">
     <g id="line2d_6">
      <defs>
       <path d="M 0 0 
L -3.5 0 
" id="m56dd81c442" style="stroke:#58544f;stroke-width:0.8;"/>
      </defs>
      <g>
       <use style="fill:#58544f;stroke:#58544f;stroke-width:0.8;" x="26.8" xlink:href="#m56dd81c442" y="248.00806"/>
      </g>
     </g>
     <g id="text_6">
      <!-- 0 -->
      <defs>
       <path d="M 51.65625 29.9375 
Q 51.65625 14.59375 45.921875 6.796875 
Q 40.1875 -0.984375 28.46875 -0.984375 
Q 16.9375 -0.984375 11.109375 6.609375 
Q 5.28125 14.203125 5.125 29.109375 
L 5.125 41.40625 
Q 5.125 56.734375 10.859375 64.40625 
Q 16.609375 72.078125 28.375 72.078125 
Q 40.046875 72.078125 45.78125 64.59375 
Q 51.515625 57.125 51.65625 42.234375 
z
M 39.796875 43.21875 
Q 39.796875 53.21875 37.0625 57.875 
Q 34.328125 62.546875 28.375 62.546875 
Q 22.5625 62.546875 19.828125 58.125 
Q 17.09375 53.71875 16.9375 44.34375 
L 16.9375 28.21875 
Q 16.9375 18.265625 19.71875 13.375 
Q 22.515625 8.5 28.46875 8.5 
Q 34.1875 8.5 36.921875 13.015625 
Q 39.65625 17.53125 39.796875 27.15625 
z
" id="Roboto-Medium-48"/>
      </defs>
      <g style="fill:#58544f;" transform="translate(15.2525 251.00806)scale(0.08 -0.08)">
       <use xlink:href="#Roboto-Medium-48"/>
      </g>
     </g>
    </g>
    <g id="ytick_2">
     <g id="line2d_7">
      <g>
       <use style="fill:#58544f;stroke:#58544f;stroke-width:0.8;" x="26.8" xlink:href="#m56dd81c442" y="214.508903"/>
      </g>
     </g>
     <g id="text_7">
      <!-- 10 -->
      <defs>
       <path d="M 37.453125 0 
L 25.640625 0 
L 25.640625 57.078125 
L 8.203125 51.125 
L 8.203125 61.140625 
L 35.9375 71.34375 
L 37.453125 71.34375 
z
" id="Roboto-Medium-49"/>
      </defs>
      <g style="fill:#58544f;" transform="translate(10.705 217.508903)scale(0.08 -0.08)">
       <use xlink:href="#Roboto-Medium-49"/>
       <use x="56.835938" xlink:href="#Roboto-Medium-48"/>
      </g>
     </g>
    </g>
    <g id="ytick_3">
     <g id="line2d_8">
      <g>
       <use style="fill:#58544f;stroke:#58544f;stroke-width:0.8;" x="26.8" xlink:href="#m56dd81c442" y="181.009746"/>
      </g>
     </g>
     <g id="text_8">
      <!-- 20 -->
      <defs>
       <path d="M 53.125 0 
L 5.328125 0 
L 5.328125 8.15625 
L 29 33.984375 
Q 34.125 39.703125 36.296875 43.53125 
Q 38.484375 47.359375 38.484375 51.21875 
Q 38.484375 56.296875 35.625 59.421875 
Q 32.765625 62.546875 27.9375 62.546875 
Q 22.171875 62.546875 19 59.03125 
Q 15.828125 55.515625 15.828125 49.421875 
L 3.953125 49.421875 
Q 3.953125 55.90625 6.90625 61.109375 
Q 9.859375 66.3125 15.34375 69.1875 
Q 20.84375 72.078125 28.03125 72.078125 
Q 38.375 72.078125 44.359375 66.875 
Q 50.34375 61.671875 50.34375 52.484375 
Q 50.34375 47.171875 47.34375 41.328125 
Q 44.34375 35.5 37.5 28.078125 
L 20.125 9.46875 
L 53.125 9.46875 
z
" id="Roboto-Medium-50"/>
      </defs>
      <g style="fill:#58544f;" transform="translate(10.705 184.009746)scale(0.08 -0.08)">
       <use xlink:href="#Roboto-Medium-50"/>
       <use x="56.835938" xlink:href="#Roboto-Medium-48"/>
      </g>
     </g>
    </g>
    <g id="ytick_4">
     <g id="line2d_9">
      <g>
       <use style="fill:#58544f;stroke:#58544f;stroke-width:0.8;" x="26.8" xlink:href="#m56dd81c442" y="147.510588"/>
      </g>
     </g>
     <g id="text_9">
      <!-- 30 -->
      <defs>
       <path d="M 19.046875 40.96875 
L 26.265625 40.96875 
Q 31.734375 41.015625 34.9375 43.796875 
Q 38.140625 46.578125 38.140625 51.859375 
Q 38.140625 56.9375 35.46875 59.734375 
Q 32.8125 62.546875 27.34375 62.546875 
Q 22.5625 62.546875 19.484375 59.78125 
Q 16.40625 57.03125 16.40625 52.59375 
L 4.546875 52.59375 
Q 4.546875 58.0625 7.453125 62.546875 
Q 10.359375 67.046875 15.546875 69.5625 
Q 20.75 72.078125 27.203125 72.078125 
Q 37.84375 72.078125 43.921875 66.71875 
Q 50 61.375 50 51.859375 
Q 50 47.078125 46.9375 42.84375 
Q 43.890625 38.625 39.0625 36.46875 
Q 44.921875 34.46875 47.96875 30.171875 
Q 51.03125 25.875 51.03125 19.921875 
Q 51.03125 10.359375 44.453125 4.6875 
Q 37.890625 -0.984375 27.203125 -0.984375 
Q 16.9375 -0.984375 10.390625 4.484375 
Q 3.859375 9.96875 3.859375 19.046875 
L 15.71875 19.046875 
Q 15.71875 14.359375 18.859375 11.421875 
Q 22.015625 8.5 27.34375 8.5 
Q 32.859375 8.5 36.03125 11.421875 
Q 39.203125 14.359375 39.203125 19.921875 
Q 39.203125 25.53125 35.875 28.5625 
Q 32.5625 31.59375 26.03125 31.59375 
L 19.046875 31.59375 
z
" id="Roboto-Medium-51"/>
      </defs>
      <g style="fill:#58544f;" transform="translate(10.705 150.510588)scale(0.08 -0.08)">
       <use xlink:href="#Roboto-Medium-51"/>
       <use x="56.835938" xlink:href="#Roboto-Medium-48"/>
      </g>
     </g>
    </g>
    <g id="ytick_5">
     <g id="line2d_10">
      <g>
       <use style="fill:#58544f;stroke:#58544f;stroke-width:0.8;" x="26.8" xlink:href="#m56dd81c442" y="114.011431"/>
      </g>
     </g>
     <g id="text_10">
      <!-- 40 -->
      <defs>
       <path d="M 45.453125 25.34375 
L 54.296875 25.34375 
L 54.296875 15.828125 
L 45.453125 15.828125 
L 45.453125 0 
L 33.59375 0 
L 33.59375 15.828125 
L 2.875 15.828125 
L 2.546875 23.046875 
L 33.203125 71.09375 
L 45.453125 71.09375 
z
M 14.984375 25.34375 
L 33.59375 25.34375 
L 33.59375 55.03125 
L 32.71875 53.46875 
z
" id="Roboto-Medium-52"/>
      </defs>
      <g style="fill:#58544f;" transform="translate(10.705 117.011431)scale(0.08 -0.08)">
       <use xlink:href="#Roboto-Medium-52"/>
       <use x="56.835938" xlink:href="#Roboto-Medium-48"/>
      </g>
     </g>
    </g>
    <g id="ytick_6">
     <g id="line2d_11">
      <g>
       <use style="fill:#58544f;stroke:#58544f;stroke-width:0.8;" x="26.8" xlink:href="#m56dd81c442" y="80.512274"/>
      </g>
     </g>
     <g id="text_11">
      <!-- 50 -->
      <defs>
       <path d="M 8.5 35.25 
L 12.359375 71.09375 
L 50.53125 71.09375 
L 50.53125 60.84375 
L 22.21875 60.84375 
L 20.265625 43.84375 
Q 25.203125 46.6875 31.390625 46.6875 
Q 41.546875 46.6875 47.1875 40.1875 
Q 52.828125 33.6875 52.828125 22.703125 
Q 52.828125 11.859375 46.578125 5.4375 
Q 40.328125 -0.984375 29.4375 -0.984375 
Q 19.671875 -0.984375 13.25 4.5625 
Q 6.84375 10.109375 6.296875 19.1875 
L 17.78125 19.1875 
Q 18.453125 14.015625 21.484375 11.25 
Q 24.515625 8.5 29.390625 8.5 
Q 34.859375 8.5 37.90625 12.40625 
Q 40.96875 16.3125 40.96875 23.046875 
Q 40.96875 29.546875 37.59375 33.328125 
Q 34.234375 37.109375 28.328125 37.109375 
Q 25.09375 37.109375 22.84375 36.25 
Q 20.609375 35.40625 17.96875 32.90625 
z
" id="Roboto-Medium-53"/>
      </defs>
      <g style="fill:#58544f;" transform="translate(10.705 83.512274)scale(0.08 -0.08)">
       <use xlink:href="#Roboto-Medium-53"/>
       <use x="56.835938" xlink:href="#Roboto-Medium-48"/>
      </g>
     </g>
    </g>
    <g id="ytick_7">
     <g id="line2d_12">
      <g>
       <use style="fill:#58544f;stroke:#58544f;stroke-width:0.8;" x="26.8" xlink:href="#m56dd81c442" y="47.013117"/>
      </g>
     </g>
     <g id="text_12">
      <!-- 60 -->
      <defs>
       <path d="M 42.234375 71.4375 
L 42.234375 61.625 
L 40.765625 61.625 
Q 30.8125 61.46875 24.84375 56.140625 
Q 18.890625 50.828125 17.78125 41.0625 
Q 23.484375 47.078125 32.375 47.078125 
Q 41.796875 47.078125 47.234375 40.4375 
Q 52.6875 33.796875 52.6875 23.296875 
Q 52.6875 12.453125 46.3125 5.734375 
Q 39.9375 -0.984375 29.59375 -0.984375 
Q 18.953125 -0.984375 12.328125 6.875 
Q 5.71875 14.75 5.71875 27.484375 
L 5.71875 31.546875 
Q 5.71875 50.25 14.8125 60.84375 
Q 23.921875 71.4375 41.015625 71.4375 
z
M 29.5 37.5 
Q 25.59375 37.5 22.34375 35.296875 
Q 19.09375 33.109375 17.578125 29.4375 
L 17.578125 25.828125 
Q 17.578125 17.921875 20.890625 13.25 
Q 24.21875 8.59375 29.484375 8.59375 
Q 34.765625 8.59375 37.84375 12.546875 
Q 40.921875 16.5 40.921875 22.9375 
Q 40.921875 29.390625 37.796875 33.4375 
Q 34.671875 37.5 29.5 37.5 
z
" id="Roboto-Medium-54"/>
      </defs>
      <g style="fill:#58544f;" transform="translate(10.705 50.013117)scale(0.08 -0.08)">
       <use xlink:href="#Roboto-Medium-54"/>
       <use x="56.835938" xlink:href="#Roboto-Medium-48"/>
      </g>
     </g>
    </g>
    <g id="ytick_8">
     <g id="line2d_13">
      <g>
       <use style="fill:#58544f;stroke:#58544f;stroke-width:0.8;" x="26.8" xlink:href="#m56dd81c442" y="13.51396"/>
      </g>
     </g>
     <g id="text_13">
      <!-- 70 -->
      <defs>
       <path d="M 52.640625 64.5 
L 24.21875 0 
L 11.765625 0 
L 40.140625 61.578125 
L 3.375 61.578125 
L 3.375 71.09375 
L 52.640625 71.09375 
z
" id="Roboto-Medium-55"/>
      </defs>
      <g style="fill:#58544f;" transform="translate(10.705 16.51396)scale(0.08 -0.08)">
       <use xlink:href="#Roboto-Medium-55"/>
       <use x="56.835938" xlink:href="#Roboto-Medium-48"/>
      </g>
     </g>
    </g>
   </g>
   <g id="line2d_14">
    <path clip-path="url(#p899c0c6792)" d="M 131.04 250.471957 
L 131.04 242.109246 
" style="fill:none;stroke:#3d3d3d;stroke-linecap:square;stroke-width:3;"/>
   </g>
   <g id="line2d_15">
    <path clip-path="url(#p899c0c6792)" d="M 131.04 250.195532 
L 131.04 246.960888 
" style="fill:none;stroke:#3d3d3d;stroke-linecap:square;stroke-width:9;"/>
   </g>
   <g id="line2d_16">
    <path clip-path="url(#p899c0c6792)" d="M 339.52 249.479854 
L 339.52 247.031687 
" style="fill:none;stroke:#3d3d3d;stroke-linecap:square;stroke-width:3;"/>
   </g>
   <g id="line2d_17">
    <path clip-path="url(#p899c0c6792)" d="M 339.52 249.176003 
L 339.52 248.318029 
" style="fill:none;stroke:#3d3d3d;stroke-linecap:square;stroke-width:9;"/>
   </g>
   <g id="line2d_18">
    <path clip-path="url(#p899c0c6792)" d="M 548 248.77161 
L 548 248.77161 
" style="fill:none;stroke:#3d3d3d;stroke-linecap:square;stroke-width:3;"/>
   </g>
   <g id="line2d_19">
    <path clip-path="url(#p899c0c6792)" d="M 548 248.77161 
L 548 248.77161 
" style="fill:none;stroke:#3d3d3d;stroke-linecap:square;stroke-width:9;"/>
   </g>
   <g id="line2d_20">
    <path clip-path="url(#p899c0c6792)" d="M 756.48 248.243937 
L 756.48 247.9197 
" style="fill:none;stroke:#3d3d3d;stroke-linecap:square;stroke-width:3;"/>
   </g>
   <g id="line2d_21">
    <path clip-path="url(#p899c0c6792)" d="M 756.48 248.132277 
L 756.48 248.047219 
" style="fill:none;stroke:#3d3d3d;stroke-linecap:square;stroke-width:9;"/>
   </g>
   <g id="line2d_22">
    <path clip-path="url(#p899c0c6792)" d="M 964.96 248.650592 
L 964.96 247.562837 
" style="fill:none;stroke:#3d3d3d;stroke-linecap:square;stroke-width:3;"/>
   </g>
   <g id="line2d_23">
    <path clip-path="url(#p899c0c6792)" d="M 964.96 248.287132 
L 964.96 247.997406 
" style="fill:none;stroke:#3d3d3d;stroke-linecap:square;stroke-width:9;"/>
   </g>
   <g id="patch_3">
    <path d="M 26.8 262.621875 
L 26.8 11.902053 
" style="fill:none;stroke:#58544f;stroke-linecap:square;stroke-linejoin:miter;stroke-width:0.8;"/>
   </g>
   <g id="patch_4">
    <path d="M 1069.2 262.621875 
L 1069.2 11.902053 
" style="fill:none;stroke:#58544f;stroke-linecap:square;stroke-linejoin:miter;stroke-width:0.8;"/>
   </g>
   <g id="patch_5">
    <path d="M 26.8 262.621875 
L 1069.2 262.621875 
" style="fill:none;stroke:#58544f;stroke-linecap:square;stroke-linejoin:miter;stroke-width:0.8;"/>
   </g>
   <g id="patch_6">
    <path d="M 26.8 11.902053 
L 1069.2 11.902053 
" style="fill:none;stroke:#58544f;stroke-linecap:square;stroke-linejoin:miter;stroke-width:0.8;"/>
   </g>
   <g id="PathCollection_1">
    <defs>
     <path d="M 0 3 
C 0.795609 3 1.55874 2.683901 2.12132 2.12132 
C 2.683901 1.55874 3 0.795609 3 0 
C 3 -0.795609 2.683901 -1.55874 2.12132 -2.12132 
C 1.55874 -2.683901 0.795609 -3 0 -3 
C -0.795609 -3 -1.55874 -2.683901 -2.12132 -2.12132 
C -2.683901 -1.55874 -3 -0.795609 -3 0 
C -3 0.795609 -2.683901 1.55874 -2.12132 2.12132 
C -1.55874 2.683901 -0.795609 3 0 3 
z
" id="m4f5593a553" style="stroke:#3d3d3d;"/>
    </defs>
    <g clip-path="url(#p899c0c6792)">
     <use style="fill:#ffffff;stroke:#3d3d3d;" x="131.04" xlink:href="#m4f5593a553" y="249.578392"/>
    </g>
   </g>
   <g id="PathCollection_2">
    <g clip-path="url(#p899c0c6792)">
     <use style="fill:#ffffff;stroke:#3d3d3d;" x="339.52" xlink:href="#m4f5593a553" y="248.898377"/>
    </g>
   </g>
   <g id="PathCollection_3">
    <g clip-path="url(#p899c0c6792)">
     <use style="fill:#ffffff;stroke:#3d3d3d;" x="548" xlink:href="#m4f5593a553" y="248.77161"/>
    </g>
   </g>
   <g id="PathCollection_4">
    <g clip-path="url(#p899c0c6792)">
     <use style="fill:#ffffff;stroke:#3d3d3d;" x="756.48" xlink:href="#m4f5593a553" y="248.094539"/>
    </g>
   </g>
   <g id="PathCollection_5">
    <g clip-path="url(#p899c0c6792)">
     <use style="fill:#ffffff;stroke:#3d3d3d;" x="964.96" xlink:href="#m4f5593a553" y="248.155898"/>
    </g>
   </g>
  </g>
  <g id="text_14">
   <!-- Violin Plot of all Continuous Variables -->
   <defs>
    <path d="M 32.28125 15.484375 
L 50.34375 71.09375 
L 63.921875 71.09375 
L 38.328125 0 
L 26.375 0 
L 0.875 71.09375 
L 14.40625 71.09375 
z
" id="Roboto-Medium-86"/>
    <path id="Roboto-Medium-32"/>
    <path d="M 10.25 0 
L 10.25 44.046875 
L 2.203125 44.046875 
L 2.203125 52.828125 
L 10.25 52.828125 
L 10.25 57.671875 
Q 10.25 66.453125 15.125 71.234375 
Q 20.015625 76.03125 28.8125 76.03125 
Q 31.9375 76.03125 35.453125 75.140625 
L 35.15625 65.875 
Q 33.203125 66.265625 30.609375 66.265625 
Q 22.125 66.265625 22.125 57.515625 
L 22.125 52.828125 
L 32.859375 52.828125 
L 32.859375 44.046875 
L 22.125 44.046875 
L 22.125 0 
z
" id="Roboto-Medium-102"/>
    <path d="M 52.4375 25.875 
Q 52.4375 13.578125 46.9375 6.296875 
Q 41.453125 -0.984375 31.84375 -0.984375 
Q 22.5625 -0.984375 17.390625 5.71875 
L 16.796875 0 
L 6.0625 0 
L 6.0625 75 
L 17.921875 75 
L 17.921875 47.75 
Q 23.046875 53.8125 31.734375 53.8125 
Q 41.40625 53.8125 46.921875 46.625 
Q 52.4375 39.453125 52.4375 26.5625 
z
M 40.578125 26.90625 
Q 40.578125 35.5 37.546875 39.796875 
Q 34.515625 44.09375 28.765625 44.09375 
Q 21.046875 44.09375 17.921875 37.359375 
L 17.921875 15.578125 
Q 21.09375 8.6875 28.859375 8.6875 
Q 34.421875 8.6875 37.453125 12.84375 
Q 40.484375 17 40.578125 25.390625 
z
" id="Roboto-Medium-98"/>
   </defs>
   <g style="fill:#262626;" transform="translate(413.387109 17.01)scale(0.15 -0.15)">
    <use xlink:href="#Roboto-Medium-86"/>
    <use x="64.697266" xlink:href="#Roboto-Medium-105"/>
    <use x="90.234375" xlink:href="#Roboto-Medium-111"/>
    <use x="147.167969" xlink:href="#Roboto-Medium-108"/>
    <use x="172.705078" xlink:href="#Roboto-Medium-105"/>
    <use x="198.242188" xlink:href="#Roboto-Medium-110"/>
    <use x="253.857422" xlink:href="#Roboto-Medium-32"/>
    <use x="278.759766" xlink:href="#Roboto-Medium-80"/>
    <use x="342.675781" xlink:href="#Roboto-Medium-108"/>
    <use x="368.212891" xlink:href="#Roboto-Medium-111"/>
    <use x="425.146484" xlink:href="#Roboto-Medium-116"/>
    <use x="458.398438" xlink:href="#Roboto-Medium-32"/>
    <use x="483.300781" xlink:href="#Roboto-Medium-111"/>
    <use x="540.234375" xlink:href="#Roboto-Medium-102"/>
    <use x="575.683594" xlink:href="#Roboto-Medium-32"/>
    <use x="600.585938" xlink:href="#Roboto-Medium-97"/>
    <use x="654.6875" xlink:href="#Roboto-Medium-108"/>
    <use x="680.224609" xlink:href="#Roboto-Medium-108"/>
    <use x="705.761719" xlink:href="#Roboto-Medium-32"/>
    <use x="730.664062" xlink:href="#Roboto-Medium-67"/>
    <use x="795.947266" xlink:href="#Roboto-Medium-111"/>
    <use x="852.880859" xlink:href="#Roboto-Medium-110"/>
    <use x="908.496094" xlink:href="#Roboto-Medium-116"/>
    <use x="941.748047" xlink:href="#Roboto-Medium-105"/>
    <use x="967.285156" xlink:href="#Roboto-Medium-110"/>
    <use x="1022.900391" xlink:href="#Roboto-Medium-117"/>
    <use x="1078.466797" xlink:href="#Roboto-Medium-111"/>
    <use x="1135.400391" xlink:href="#Roboto-Medium-117"/>
    <use x="1190.966797" xlink:href="#Roboto-Medium-115"/>
    <use x="1242.578125" xlink:href="#Roboto-Medium-32"/>
    <use x="1267.480469" xlink:href="#Roboto-Medium-86"/>
    <use x="1332.177734" xlink:href="#Roboto-Medium-97"/>
    <use x="1386.279297" xlink:href="#Roboto-Medium-114"/>
    <use x="1421.435547" xlink:href="#Roboto-Medium-105"/>
    <use x="1446.972656" xlink:href="#Roboto-Medium-97"/>
    <use x="1501.074219" xlink:href="#Roboto-Medium-98"/>
    <use x="1557.373047" xlink:href="#Roboto-Medium-108"/>
    <use x="1582.910156" xlink:href="#Roboto-Medium-101"/>
    <use x="1636.572266" xlink:href="#Roboto-Medium-115"/>
   </g>
  </g>
 </g>
 <defs>
  <clipPath id="p899c0c6792">
   <rect height="250.719822" width="1042.4" x="26.8" y="11.902053"/>
  </clipPath>
 </defs>
</svg>
